<svg xmlns="http://www.w3.org/2000/svg" viewBox="291.94 29.253 129.399 46.698">
  <defs>
    <linearGradient id="a" x1="19.455" x2="38.687" y1="15.014" y2="15.014" gradientTransform="translate(307.362 80.351)" gradientUnits="userSpaceOnUse">
      <stop stop-color="#179AE2"/>
      <stop offset=".2" stop-color="#17A8E2"/>
      <stop offset=".58" stop-color="#17CEE2"/>
      <stop offset="1" stop-color="#17FFE2"/>
    </linearGradient>
    <linearGradient id="b" x1=".729" x2="6.293" y1="15.03" y2="15.03" gradientTransform="translate(307.362 80.351)" gradientUnits="userSpaceOnUse">
      <stop stop-color="#179AE2"/>
      <stop offset=".2" stop-color="#17A8E2"/>
      <stop offset=".58" stop-color="#17CEE2"/>
      <stop offset="1" stop-color="#17FFE2"/>
    </linearGradient>
  </defs>
  <path fill="#2B3960" d="M334.172 75.951h-1.03V29.253h1.03Zm8.846-21.299V42.217h-4.343v-2.594h11.841v2.594h-4.353v12.435Zm7.064-3.208c0-2.031 1.563-3.208 4.343-3.375l2.813-.166v-.74c0-1.041-.728-1.646-1.875-1.646a1.801 1.801 0 0 0-2 1.385h-2.78c.115-2.166 1.958-3.656 4.916-3.656s4.729 1.479 4.729 3.729v7.676h-2.937v-1.708h-.063a3.844 3.844 0 0 1-3.406 1.885 3.44 3.44 0 0 1-3.432-2.015 3.447 3.447 0 0 1-.307-1.37Zm7.155-.885v-.812l-2.354.146c-1.135.084-1.781.593-1.781 1.385 0 .833.687 1.354 1.718 1.354a2.22 2.22 0 0 0 1.643-.529 2.219 2.219 0 0 0 .773-1.543Zm6.011-7.071h2.938v1.989h.063a3.53 3.53 0 0 1 3.489-2.2c2.479 0 3.875 1.563 3.875 4.177v7.2h-3.042v-6.562c0-1.458-.687-2.291-2.052-2.291a2.207 2.207 0 0 0-1.665.723 2.204 2.204 0 0 0-.564 1.725v6.4h-3.042Zm13.291 11.956h2.979a2.22 2.22 0 0 0 2.271 1.3 2.133 2.133 0 0 0 1.725-.516 2.142 2.142 0 0 0 .723-1.65v-1.956h-.063a3.65 3.65 0 0 1-3.447 2c-2.729 0-4.531-2.1-4.531-5.593s1.749-5.717 4.582-5.717a3.661 3.661 0 0 1 3.448 2.125h.05v-1.945h3v11.009c0 2.666-2.229 4.364-5.572 4.364-2.937 0-4.926-1.426-5.167-3.416Zm7.706-6.395c0-2.01-.968-3.3-2.488-3.3s-2.448 1.27-2.448 3.3.938 3.228 2.448 3.228 2.488-1.208 2.488-3.228Zm9.991-.98 2.813-.166v-.74c0-1.041-.729-1.646-1.875-1.646a1.797 1.797 0 0 0-2 1.385h-2.78c.115-2.166 1.957-3.656 4.915-3.656s4.729 1.479 4.729 3.729v7.676h-2.937v-1.708h-.063a3.834 3.834 0 0 1-3.406 1.885 3.44 3.44 0 0 1-3.431-2.015 3.447 3.447 0 0 1-.307-1.37c.001-2.03 1.561-3.207 4.342-3.374Zm2.812 2.49v-.812l-2.354.146c-1.135.084-1.781.593-1.781 1.385 0 .833.687 1.354 1.718 1.354a2.22 2.22 0 0 0 2.185-1.222c.132-.265.211-.554.231-.85Zm6.011-7.072h2.937v2.01h.062a2.666 2.666 0 0 1 2.655-2.187c.293-.003.584.036.865.115v2.676a3.116 3.116 0 0 0-1.099-.178 2.226 2.226 0 0 0-2.375 2.489v6.239h-3.042V43.489Zm8.137 7.957c0-2.031 1.563-3.208 4.343-3.375l2.813-.166v-.74c0-1.041-.73-1.646-1.876-1.646a1.797 1.797 0 0 0-2 1.385h-2.782c.115-2.166 1.958-3.656 4.916-3.656s4.729 1.479 4.729 3.729v7.676h-2.937v-1.708h-.063a3.834 3.834 0 0 1-3.406 1.885 3.44 3.44 0 0 1-3.431-2.015 3.465 3.465 0 0 1-.308-1.37Zm7.156-.885v-.812l-2.355.146c-1.135.084-1.781.593-1.781 1.385 0 .833.688 1.354 1.719 1.354a2.216 2.216 0 0 0 1.643-.529 2.23 2.23 0 0 0 .773-1.543Zm-64.177-8.645 2.3-3.228h2.792l-2.667 3.228Zm-13.502 22.4c.069.634.67 1.052 1.508 1.052.793 0 1.369-.418 1.369-1 0-.5-.344-.8-1.133-1l-.751-.195c-1.08-.276-1.56-.751-1.56-1.548 0-.975.854-1.658 2.073-1.658a1.81 1.81 0 0 1 1.845.967c.113.22.181.46.198.707h-.731a1.184 1.184 0 0 0-.875-.988 1.18 1.18 0 0 0-.462-.028c-.764 0-1.288.394-1.288.967 0 .443.325.707 1.122.914l.613.163c1.214.3 1.705.772 1.705 1.613 0 1.072-.845 1.742-2.194 1.742a1.925 1.925 0 0 1-1.446-.399 1.938 1.938 0 0 1-.727-1.311h.735Zm4.326-3.76a.438.438 0 0 1 .526-.432.442.442 0 0 1 .32.601.441.441 0 0 1-.718.141.439.439 0 0 1-.128-.31Zm.085 1.149h.707v4.225h-.707Zm3.166-.074a1.41 1.41 0 0 1 1.029.297 1.405 1.405 0 0 1 .519.938h-.674c-.049-.407-.378-.658-.9-.658s-.857.255-.857.625c0 .292.223.488.7.609l.654.158c.853.215 1.161.524 1.161 1.146 0 .735-.694 1.255-1.682 1.255a1.482 1.482 0 0 1-1.645-1.251h.707c.077.439.41.675.983.675s.927-.244.927-.626c0-.3-.174-.463-.649-.589l-.743-.191c-.744-.191-1.11-.573-1.11-1.15 0-.723.646-1.24 1.577-1.24Zm3.304-.946v1.02h.82v.581h-.82v2.511c0 .386.163.56.523.56.097-.002.195-.009.292-.021v.593a2.484 2.484 0 0 1-.447.032c-.776 0-1.077-.317-1.077-1.13v-2.547h-.63v-.581h.63v-1.02h.707Zm4.95 4.034a1.677 1.677 0 0 1-1.76 1.284 1.914 1.914 0 0 1-1.946-2.17 1.937 1.937 0 0 1 .46-1.531 1.944 1.944 0 0 1 1.453-.669c1.165 0 1.844.828 1.844 2.108v.268h-3.027v.04a1.207 1.207 0 0 0 1.235 1.34 1.02 1.02 0 0 0 1.048-.67Zm-.674-1.264a1.14 1.14 0 0 0-.299-.85 1.13 1.13 0 0 0-1.281-.264 1.18 1.18 0 0 0-.715 1.114Zm2.105-1.753v.675h.016a1.263 1.263 0 0 1 1.2-.747 1.188 1.188 0 0 1 1.187.8h.016a1.41 1.41 0 0 1 1.324-.8 1.3 1.3 0 0 1 1.003.378c.13.131.231.288.296.461.064.174.091.359.078.543v2.917h-.707v-2.754a.82.82 0 0 0-.877-.918.94.94 0 0 0-.955.988v2.685h-.707V63.1a.8.8 0 0 0-.865-.841.974.974 0 0 0-.704.304.96.96 0 0 0-.263.72v2.649h-.707V61.7Zm5.846 3.033c0-.723.557-1.178 1.532-1.235l1.21-.069v-.354c0-.516-.341-.825-.927-.825a.885.885 0 0 0-.975.67h-.682c.024-.195.087-.383.185-.553a1.501 1.501 0 0 1 1.488-.739c1 0 1.616.536 1.616 1.377v2.921h-.67v-.727h-.016a1.537 1.537 0 0 1-1.356.8 1.27 1.27 0 0 1-1.406-1.267Zm2.743-.41v-.345l-1.129.069c-.568.037-.894.289-.894.686 0 .397.336.667.845.667a1.102 1.102 0 0 0 .816-.289 1.12 1.12 0 0 0 .362-.788Zm3.105-.509c0-1.324.728-2.186 1.792-2.186a1.487 1.487 0 0 1 1.345.759h.016v-2.322h.707v5.862h-.674v-.715h-.013a1.52 1.52 0 0 1-1.366.788c-1.077 0-1.807-.862-1.807-2.186Zm.723 0c0 .959.471 1.564 1.219 1.564.748 0 1.214-.617 1.214-1.564 0-.947-.487-1.564-1.214-1.564s-1.219.61-1.219 1.564Zm7.59.903a1.671 1.671 0 0 1-1.76 1.284 1.911 1.911 0 0 1-1.878-1.351 1.908 1.908 0 0 1-.068-.819 1.937 1.937 0 0 1 .46-1.531 1.934 1.934 0 0 1 1.453-.669c1.165 0 1.844.828 1.844 2.108v.268h-3.031v.04a1.193 1.193 0 0 0 .311.951 1.209 1.209 0 0 0 .923.389 1.023 1.023 0 0 0 1.048-.67Zm-.674-1.264a1.124 1.124 0 0 0-.3-.85 1.125 1.125 0 0 0-1.28-.264 1.18 1.18 0 0 0-.715 1.114Zm3.097-2.899a.438.438 0 0 1 .526-.432.442.442 0 0 1 .32.601.441.441 0 0 1-.718.141.439.439 0 0 1-.128-.31Zm.085 1.149h.707v4.225h-.707Zm1.662-.003h.666v.675h.017a1.412 1.412 0 0 1 1.34-.747 1.395 1.395 0 0 1 1.404.955c.063.194.083.399.059.601v2.743h-.707V63.31c0-.683-.321-1.056-.972-1.056a1.097 1.097 0 0 0-.815.348 1.074 1.074 0 0 0-.285.838v2.486h-.706Zm4.612.583h-.589v-.581h.589v-.471c0-.812.378-1.2 1.158-1.2a3.1 3.1 0 0 1 .43.032v.573a2.448 2.448 0 0 0-.32-.024c-.382 0-.565.2-.565.622v.467h.865v.581h-.861v3.644h-.707Zm1.89 1.532a1.97 1.97 0 0 1 3.422-1.095 1.972 1.972 0 0 1 .331 2.115 1.97 1.97 0 0 1-1.795 1.166 1.95 1.95 0 0 1-1.883-1.365 1.95 1.95 0 0 1-.075-.821Zm3.193 0c0-1-.487-1.564-1.235-1.564-.748 0-1.239.568-1.239 1.564 0 .996.491 1.564 1.239 1.564.748 0 1.235-.57 1.235-1.564Zm1.43-2.113h.667v.691h.017a1.034 1.034 0 0 1 1.023-.764c.096.002.191.012.284.029v.686a1.448 1.448 0 0 0-.377-.04.9.9 0 0 0-.907.991v2.633h-.707Zm3.232-.002v.675h.015a1.263 1.263 0 0 1 1.2-.747 1.186 1.186 0 0 1 1.187.8h.016a1.413 1.413 0 0 1 1.324-.8 1.303 1.303 0 0 1 1.004.378 1.29 1.29 0 0 1 .373 1.004v2.917h-.707v-2.754a.82.82 0 0 0-.878-.918.934.934 0 0 0-.953.988v2.685h-.707V63.1a.812.812 0 0 0-.529-.797.817.817 0 0 0-.336-.044.974.974 0 0 0-.705.304.972.972 0 0 0-.262.72v2.649h-.707V61.7Zm5.846 3.033c0-.723.557-1.178 1.532-1.235l1.211-.069v-.354c0-.516-.341-.825-.927-.825a.885.885 0 0 0-.975.67h-.683a1.485 1.485 0 0 1 .569-.993 1.501 1.501 0 0 1 1.105-.299c1 0 1.616.536 1.616 1.377v2.921h-.669v-.727h-.017a1.534 1.534 0 0 1-1.356.8 1.273 1.273 0 0 1-1.297-.748 1.28 1.28 0 0 1-.109-.518Zm2.741-.41v-.345l-1.128.069c-.568.037-.895.289-.895.686 0 .397.337.667.845.667a1.104 1.104 0 0 0 .817-.289 1.12 1.12 0 0 0 .361-.788Zm4.431-1.236a1.04 1.04 0 0 0-1.081-.837c-.73 0-1.227.6-1.227 1.564 0 .964.5 1.564 1.235 1.564.247.019.493-.053.692-.202.198-.15.335-.367.385-.61h.694A1.687 1.687 0 0 1 408.409 66a2.202 2.202 0 0 1-1.396-3.647 2.2 2.2 0 0 1 1.388-.724 1.685 1.685 0 0 1 1.776 1.458Zm1.297-2.533a.437.437 0 0 1 .525-.432.44.44 0 0 1 .321.601.437.437 0 0 1-.408.27.439.439 0 0 1-.438-.439Zm.084 1.149h.707v4.225h-.707Zm1.456 2.112a1.966 1.966 0 0 1 3.421-1.095 1.965 1.965 0 0 1-.394 2.964 1.97 1.97 0 0 1-1.069.317 1.95 1.95 0 0 1-1.883-1.365 1.934 1.934 0 0 1-.075-.821Zm3.193 0c0-1-.486-1.564-1.234-1.564s-1.24.568-1.24 1.564c0 .996.491 1.564 1.24 1.564s1.234-.569 1.234-1.564Zm-1.532-2.722.854-1.219h.764l-1 1.219Zm2.963.607h.667v.675h.017a1.41 1.41 0 0 1 1.341-.747 1.398 1.398 0 0 1 1.095.436 1.392 1.392 0 0 1 .366 1.12v2.743h-.707V63.31c0-.683-.32-1.056-.97-1.056a1.094 1.094 0 0 0-.815.347 1.087 1.087 0 0 0-.286.839v2.486h-.707Zm-75.582 6.966a1.232 1.232 0 0 1 1.355 1.081h-.59c-.042-.355-.331-.576-.786-.576s-.75.225-.75.548c0 .255.2.427.615.534l.573.139c.747.188 1.017.458 1.017 1 0 .644-.608 1.1-1.472 1.1a1.296 1.296 0 0 1-.943-.258 1.295 1.295 0 0 1-.497-.842h.618c.068.384.36.59.861.59s.811-.213.811-.547c0-.263-.153-.406-.57-.516l-.65-.167c-.651-.167-.97-.5-.97-1.007 0-.633.566-1.085 1.379-1.085Zm1.891 1.913a1.725 1.725 0 0 1 1.187-1.451 1.728 1.728 0 0 1 1.808.491 1.722 1.722 0 0 1-1.281 2.873 1.698 1.698 0 0 1-1.292-.567 1.71 1.71 0 0 1-.422-1.346Zm2.8 0c0-.872-.427-1.369-1.081-1.369-.654 0-1.085.5-1.085 1.369s.431 1.369 1.085 1.369c.654 0 1.076-.498 1.076-1.369Zm3.715-.636a.908.908 0 0 0-.946-.732c-.64 0-1.074.53-1.074 1.369s.441 1.369 1.081 1.369a.89.89 0 0 0 .943-.712h.608a1.472 1.472 0 0 1-1.554 1.255 1.925 1.925 0 0 1-1.221-3.191 1.928 1.928 0 0 1 1.214-.635 1.474 1.474 0 0 1 1.555 1.276Zm1.138-2.218a.384.384 0 0 1 .461-.38.38.38 0 0 1 .303.303.39.39 0 0 1-.165.397.384.384 0 0 1-.486-.049.383.383 0 0 1-.113-.271Zm.074 1.006h.619v3.7h-.619Zm1.272 1.848a1.725 1.725 0 0 1 1.186-1.451 1.728 1.728 0 0 1 1.809.491 1.722 1.722 0 0 1-1.281 2.873 1.698 1.698 0 0 1-1.292-.567 1.71 1.71 0 0 1-.422-1.346Zm2.8 0c0-.872-.427-1.369-1.081-1.369-.654 0-1.084.5-1.084 1.369s.43 1.369 1.084 1.369c.654 0 1.077-.498 1.077-1.369Zm4.309.791a1.468 1.468 0 0 1-1.54 1.124 1.674 1.674 0 0 1-1.7-1.9 1.696 1.696 0 0 1 1.675-1.928c1.021 0 1.614.725 1.614 1.846v.235h-2.653v.036a1.051 1.051 0 0 0 .273.833 1.04 1.04 0 0 0 .808.34.896.896 0 0 0 .918-.587h.608Zm-.591-1.107a1.003 1.003 0 0 0-.262-.744.992.992 0 0 0-1.123-.232 1.05 1.05 0 0 0-.557.574c-.05.128-.074.265-.071.402Zm3.727-.32a.908.908 0 0 0-.946-.732c-.64 0-1.074.53-1.074 1.369s.441 1.369 1.082 1.369a.894.894 0 0 0 .943-.712h.608a1.472 1.472 0 0 1-1.554 1.255 1.93 1.93 0 0 1-1.217-.63 1.93 1.93 0 0 1-.004-2.561 1.928 1.928 0 0 1 1.214-.635 1.475 1.475 0 0 1 1.554 1.276Zm.999.636a1.725 1.725 0 0 1 1.187-1.451 1.728 1.728 0 0 1 1.808.491 1.722 1.722 0 0 1-1.281 2.873 1.698 1.698 0 0 1-1.292-.567 1.71 1.71 0 0 1-.422-1.346Zm2.8 0c0-.872-.427-1.369-1.082-1.369s-1.084.5-1.084 1.369.43 1.369 1.084 1.369c.654 0 1.077-.498 1.077-1.369Zm1.246-1.849h.583v.59h.014a1.241 1.241 0 0 1 1.173-.654 1.225 1.225 0 0 1 .959.382 1.228 1.228 0 0 1 .322.98v2.4h-.619v-2.29c0-.6-.281-.924-.85-.924a.96.96 0 0 0-.714.305.951.951 0 0 0-.249.734v2.177h-.619Zm3.654 1.849a1.719 1.719 0 0 1 1.186-1.451c.317-.101.657-.109.978-.022a1.722 1.722 0 0 1-.45 3.386 1.698 1.698 0 0 1-1.292-.567 1.71 1.71 0 0 1-.422-1.346Zm2.8 0c0-.872-.427-1.369-1.081-1.369-.654 0-1.085.5-1.085 1.369s.431 1.369 1.085 1.369c.654 0 1.077-.498 1.077-1.369Zm-1.342-2.383.747-1.067h.669l-.875 1.067Zm2.59.534h.583v.59h.014a1.102 1.102 0 0 1 1.049-.654 1.04 1.04 0 0 1 1.039.7h.014a1.235 1.235 0 0 1 1.159-.7 1.133 1.133 0 0 1 1.206 1.21v2.553h-.619v-2.413a.718.718 0 0 0-.769-.8.823.823 0 0 0-.836.864v2.351h-.618v-2.479a.714.714 0 0 0-.211-.541.696.696 0 0 0-.546-.196.848.848 0 0 0-.847.9v2.319h-.619v-3.7Zm5.805-1.005a.384.384 0 0 1 .46-.38.378.378 0 0 1 .304.303.39.39 0 0 1-.165.397.384.384 0 0 1-.486-.049.383.383 0 0 1-.113-.271Zm.074 1.006h.618v3.7h-.618Zm3.923 1.212a.914.914 0 0 0-.947-.732c-.641 0-1.074.53-1.074 1.369s.441 1.369 1.082 1.369a.89.89 0 0 0 .943-.712h.608a1.474 1.474 0 0 1-1.555 1.255 1.925 1.925 0 0 1-1.221-3.191 1.928 1.928 0 0 1 1.214-.635 1.474 1.474 0 0 1 1.555 1.276Zm1.03 1.44c0-.633.487-1.031 1.341-1.081l1.059-.061v-.309c0-.451-.3-.722-.811-.722a.779.779 0 0 0-.854.586h-.6a1.297 1.297 0 0 1 1.465-1.131c.875 0 1.416.47 1.416 1.205v2.557h-.586v-.637h-.014a1.348 1.348 0 0 1-1.187.7 1.112 1.112 0 0 1-1.231-1.11Zm2.4-.66-.988.061c-.5.032-.782.252-.782.6s.3.583.74.583a.978.978 0 0 0 .714-.253.978.978 0 0 0 .316-.69Zm2.717-.144c0-1.159.635-1.913 1.567-1.913a1.295 1.295 0 0 1 1.178.666h.014v-2.035h.619v5.132h-.591v-.625h-.01a1.315 1.315 0 0 1-1.2.69c-.943 0-1.582-.754-1.582-1.913Zm.631 0c0 .84.414 1.369 1.068 1.369.654 0 1.063-.541 1.063-1.369s-.427-1.369-1.063-1.369c-.636 0-1.07.534-1.07 1.369Zm6.643.791a1.46 1.46 0 0 1-1.54 1.124 1.673 1.673 0 0 1-1.7-1.9 1.713 1.713 0 0 1 .402-1.343 1.7 1.7 0 0 1 1.273-.585c1.021 0 1.615.725 1.615 1.846v.235h-2.654v.036a1.068 1.068 0 0 0 .274.833 1.06 1.06 0 0 0 .808.34.894.894 0 0 0 .917-.587h.608Zm-.591-1.107a.984.984 0 0 0-.59-.977.995.995 0 0 0-.794.001 1.029 1.029 0 0 0-.558.574c-.05.128-.075.265-.072.402Zm1.293-2.966h.617v5.132h-.617Zm2.844 2.564c0-1.611.907-2.65 2.312-2.65a2.042 2.042 0 0 1 2.13 1.7h-.647a1.468 1.468 0 0 0-1.482-1.114c-1 0-1.655.811-1.655 2.058 0 1.247.644 2.063 1.657 2.063a1.417 1.417 0 0 0 1.479-.989h.647a1.983 1.983 0 0 1-2.13 1.579c-1.416 0-2.312-1.028-2.312-2.653Zm4.949 1.522c0-.633.487-1.031 1.341-1.081l1.059-.061v-.309c0-.451-.3-.722-.811-.722a.777.777 0 0 0-.852.586h-.601a1.299 1.299 0 0 1 .955-1.098c.166-.045.34-.056.511-.033.875 0 1.416.47 1.416 1.205v2.557h-.587v-.637h-.014a1.343 1.343 0 0 1-1.188.7 1.103 1.103 0 0 1-1.135-.656 1.106 1.106 0 0 1-.094-.454Zm2.399-.66-.989.061c-.5.032-.782.252-.782.6s.3.583.74.583a.965.965 0 0 0 .715-.253.97.97 0 0 0 .316-.69Zm4.443 1.706h-.587v-.6h-.014a1.316 1.316 0 0 1-2.206.122 1.308 1.308 0 0 1-.248-.822v-2.4h.619v2.29c0 .6.281.924.854.924a.932.932 0 0 0 .962-1.042V68.73h.62Zm3.267-2.486a.909.909 0 0 0-.946-.732c-.64 0-1.074.53-1.074 1.369s.441 1.369 1.082 1.369a.894.894 0 0 0 .943-.712h.609a1.476 1.476 0 0 1-1.556 1.255 1.927 1.927 0 0 1-.006-3.826 1.47 1.47 0 0 1 1.028.332c.289.237.477.574.526.944h-.6Zm1.031 1.44c0-.633.487-1.031 1.34-1.081l1.059-.061v-.309c0-.451-.299-.722-.81-.722a.779.779 0 0 0-.854.586h-.6a1.311 1.311 0 0 1 .497-.87 1.311 1.311 0 0 1 .968-.261c.875 0 1.415.47 1.415 1.205v2.557h-.586v-.637h-.013a1.348 1.348 0 0 1-1.188.7 1.112 1.112 0 0 1-1.136-.655 1.114 1.114 0 0 1-.094-.455Zm2.399-.36v-.3l-.987.061c-.5.032-.784.252-.784.6s.3.583.74.583a.976.976 0 0 0 .943-.566.966.966 0 0 0 .087-.377ZM319.092 60.941a6.288 6.288 0 0 1 4.438 1.839 6.274 6.274 0 0 1 1.839 4.438h-8.051c-2.759 0-5.572-3.835-5.942-6.277Zm-9.261-2.985a11.771 11.771 0 0 0 4.39 9.3h-7.425a8.63 8.63 0 0 1-8.632-8.632V39.887a13.187 13.187 0 0 0-3.835-9.3l-.517-.519h7.385a8.63 8.63 0 0 1 6.103 2.529 8.63 8.63 0 0 1 2.529 6.103v19.258Z"/>
  <path fill="url(#a)" d="M332.199 92.674a5.382 5.382 0 0 0-5.381 5.381h13.85a5.383 5.383 0 0 0 5.381-5.381h-13.85Z" transform="translate(-16.152 -51.638)"/>
  <path fill="url(#b)" d="M308.092 92.708h5.564v5.348h-4.661a.907.907 0 0 1-.637-.263.912.912 0 0 1-.263-.637v-4.449l-.003.001Z" transform="translate(-16.152 -51.638)"/>
  <path fill="#D1F203" d="M293.59 30.068a12.77 12.77 0 0 1 4.524 9.375c0 .829.043 1.47.043 2.127 0 5.564 5.375 5.018 11.751 5.018l-.11-8.11a8.59 8.59 0 0 0-8.539-8.474c-3.8-.022-7.671-.021-7.671.063l.002.001Z"/>
</svg>