<svg xmlns="http://www.w3.org/2000/svg" xmlns:xlink="http://www.w3.org/1999/xlink" fill="none" viewBox="0 0 420 1027">
  <defs>
    <path id="b" fill="#fff" d="M178.576 214.219a24.607 24.607 0 0 1 26.534-27.269 24.606 24.606 0 0 1 21.373 17.059 24.617 24.617 0 0 1-7.582 26.274 24.619 24.619 0 0 1-13.125 5.646 24.482 24.482 0 0 1-27.2-21.71Z"/>
  </defs>
  <path fill="#D5696E" d="M413.727 674.577s9.156-243.257-122.936-292.432l-8.109 92.595c29.034 17.525 36.881 35.835 57.545 87.886 17.263 43.682 26.942 109.335 26.942 109.335s-18.572 29.3-13.864 37.4c4.447 8.109 14.648-9.416 14.648-9.416s-9.416 43.682-1.831 44.2c7.585.518 14.125-33.48 14.125-33.48s-3.139 42.635 7.062 40.281c6.016-1.569 4.97-37.927 4.97-37.927s3.662 36.358 9.94 35.05c6.278-1.308 1.308-36.1 1.308-36.1s6.278 28.249 12.817 26.418c6.539-1.831 2.094-49.174-2.354-63.822l-.263.012Z"/>
  <path stroke="#000" stroke-linecap="round" stroke-miterlimit="10" stroke-width=".5" d="M411.112 699.164s-21.448 15.432-36.619 3.139"/>
  <path fill="#D5696E" d="M11.698 638.742s18.049-242.738 154.586-276.738l-2.093 92.856c-30.865 14.125-40.543 31.388-66.96 80.824-22.233 41.589-38.973 105.673-38.973 105.673s15.17 31.126 9.678 38.712c-5.494 7.586-13.34-10.986-13.34-10.986s4.708 44.466-2.877 43.943c-7.586-.262-10.464-34.788-10.464-34.788s-1.569 42.635-11.509 39.235c-5.753-2.354-.522-38.189-.522-38.189s-7.585 35.835-13.864 33.742c-6.278-2.093 2.617-36.1 2.617-36.1S8.56 704.395 2.282 701.779c-6.278-2.616 3.4-49.174 9.416-63.3v.263Z"/>
  <path fill="#000" d="M242.923 1020.11c17.787 6.8 121.367 13.34 131.045-6.8a8.927 8.927 0 0 0 .785-5.76c-2.093-8.891-20.664-18.046-38.45-24.847-18.048-6.8-35.573-11.247-35.573-11.247l-49.175 8.108s-14.909 19.091-14.65 31.646c0 4.19 1.569 7.59 6.016 9.16l.002-.26Z"/>
  <path fill="#9E92E0" d="M242.923 1020.11c17.787 6.8 121.367 13.34 131.045-6.8a8.927 8.927 0 0 0 .785-5.76c-20.141 6.28-70.885 17.53-137.846 3.14 0 4.19 1.569 7.59 6.016 9.16v.26Zm57.547-30.868c2.877-6.539 8.37-11.248 14.125-14.909 3.4-2.093 7.324 2.093 3.924 4.97-4.447 3.662-8.893 7.063-11.509 12.555-1.831 4.185-8.37 1.831-6.539-2.354l-.001-.262Zm12.03 2.881a62.153 62.153 0 0 1 13.863-13.6c3.662-2.354 7.585 2.354 4.185 5.232a62.09 62.09 0 0 0-12.294 12.555c-2.877 3.92-8.632-.261-5.754-4.185v-.002Zm11.509 4.966c3.924-5.493 8.893-11.771 15.171-14.909a2.621 2.621 0 0 1 3.042.785 2.616 2.616 0 0 1 .097 3.139c-3.923 5.231-8.893 9.416-12.555 14.906-2.616 3.67-8.109-.26-5.493-3.92l-.262-.001Z"/>
  <path fill="#D5696E" d="M307.53 973.025c-20.925 6.8-36.881 9.416-56.76 6.8 0 0 1.046-32.957 1.831-65.653.785-32.957 1.308-65.653 1.308-65.653v-10.724l.523-52.575 72.977-.785-4.97 54.667c0 .261-1.046 10.986-1.046 10.986s-3.4 30.865-6.539 61.468a7549.515 7549.515 0 0 0-7.062 61.468l-.262.001Z"/>
  <path fill="#D5696E" d="M322.178 839.625a495.8 495.8 0 0 1-68.269-1.569l.523-52.575 72.977-.785-4.97 54.667-.261.262Z"/>
  <path fill="#000" d="M69.243 1003.1c17.264 8.11 120.059 22.23 131.307 3.14a8.798 8.798 0 0 0 1.046-5.76c-1.308-9.15-19.094-19.613-36.619-27.721S130.449 958.9 130.449 958.9l-49.7 4.185s-16.216 18.048-17 30.342c-.262 4.185 1.047 7.583 5.494 9.673Z"/>
  <path fill="#9E92E0" d="M69.243 1003.1c17.263 8.11 120.059 22.24 131.307 3.14a8.78 8.78 0 0 0 1.046-5.75c-20.4 4.71-72.192 12.29-137.846-7.062-.262 4.185 1.046 7.582 5.493 9.682v-.01Zm59.637-26.414c3.4-6.278 9.155-10.463 15.171-13.863 3.4-1.831 7.062 2.616 3.4 5.231-4.708 3.139-9.416 6.278-12.294 11.509-2.354 4.185-8.632 1.308-6.539-2.877h.262Zm11.771 3.662a62.376 62.376 0 0 1 14.909-12.554c3.662-2.093 7.585 3.139 3.662 5.493a55.187 55.187 0 0 0-13.078 11.507c-3.139 3.662-8.632-1.046-5.493-4.708v.262Zm10.986 6.016c4.447-5.232 9.94-10.986 16.217-13.6a2.41 2.41 0 0 1 2.891.906 2.417 2.417 0 0 1-.275 3.017c-4.185 4.97-9.416 8.893-13.863 13.863-2.877 3.4-8.109-.785-5.231-4.185l.261-.001Z"/>
  <path fill="#D5696E" d="M136.99 961.255c-21.448 5.231-37.667 6.8-57.023 2.616 0 0 3.662-32.7 6.8-65.392l6.279-65.392.784-10.463 4.448-52.575 72.716 4.708-9.155 54.144c0 .261-1.831 10.986-1.831 10.986s-5.493 30.342-11.247 60.945c-5.754 30.342-11.771 60.684-11.771 60.684v-.261Z"/>
  <path fill="#D5696E" d="M161.837 828.901a494.623 494.623 0 0 1-68.007-6.539l4.447-52.575 72.716 4.708-9.155 54.144-.001.262Z"/>
  <path fill="#7568BD" d="M353.044 879.122a149.717 149.717 0 0 1-51.79 15.171 154.118 154.118 0 0 1-62.253-6.539c-1.569-10.2-2.877-18.571-3.923-24.064-2.354-13.34-3.924-23.28-6.278-38.712 0-1.569-.523-3.139-.523-4.708-4.708-33.48-8.37-69.054-10.2-106.458-1.046-21.972-1.569-43.159-1.308-63.561v-5.229c-.262 0-1.046 6.016-1.046 6.016l-5.754 45.774-4.97 39.235-10.463 81.086v.523l-8.892 69.052-106.2-15.956c0-22.233.523-44.99 1.308-68.269v-2.354a1707.96 1707.96 0 0 1 20.402-203.237c2.354-14.386 4.708-28.511 7.324-42.374.262-2.093.785-3.924 1.046-6.016.785-4.97 1.831-9.678 2.877-14.386.785-3.662 1.569-7.585 2.354-11.247v-1.047l58.329 3.4h4.447l42.635 2.616h4.447l61.73 3.662h4.447l14.909 1.046v1.046l.785 4.97 37.142 270.2.785 4.708c2.877 22.233 6.016 44.2 8.893 66.438l-.26-.786Z"/>
  <path fill="#9E92E0" d="M143.007 825.239c-23.019-1.565-45.514-9.94-63.3-24.065l2.616-3.4c30.342 24.326 74.808 30.341 110.643 15.432l1.569 3.923a112.533 112.533 0 0 1-51.79 8.109l.262.001Zm201.144-12.555a148.553 148.553 0 0 1-83.178 18.31 139.478 139.478 0 0 1-32.435-6.278c0-1.569-.522-3.139-.522-4.708 37.927 12.555 80.824 8.109 115.613-11.77l.785 4.708-.263-.262Z"/>
  <path fill="#9E92E0" d="M105.601 817.13h-4.446c.785-9.155 1.569-18.571 2.616-27.464.785-8.37 1.831-17 2.616-25.372a10.86 10.86 0 0 1-4.852-3.558 10.855 10.855 0 0 1-2.21-5.597c-1.308-7.324 2.877-16.479 9.416-20.925l24.848-167.665 4.185.523-25.11 169.757-.785.523c-5.493 3.4-9.155 10.986-8.109 17a7.003 7.003 0 0 0 5.754 6.278l1.831.523v1.831c-.785 8.893-1.831 18.31-2.877 27.2-1.046 8.89-2.093 18.31-2.616 27.2l-.261-.254Zm96.781-82.65-4.185-.785c2.616-13.6 4.447-27.465 6.539-41.066 1.831-13.6 3.924-27.726 6.539-41.328v-1.046l25.11-15.171 2.354 3.662-23.279 14.121c-2.354 13.34-4.447 26.941-6.278 40.02-1.831 13.6-3.923 27.726-6.539 41.328l-.261.265Z"/>
  <path fill="#9E92E0" d="M177.533 524.699c-.785 11.247-5.231 21.972-12.555 29.557a39.66 39.66 0 0 1-27.726 12.555h-3.662a20.256 20.256 0 0 1-3.923-.523 35.25 35.25 0 0 1-20.926-12.817c.262-2.093.785-3.924 1.046-6.016a30.455 30.455 0 0 0 20.664 14.389c10.986 2.092 23.279-2.354 31.65-10.724 6.8-7.062 10.724-16.74 11.509-26.941v-5.235h4.447v5.493l-.524.262Z"/>
  <path fill="#F6CA41" d="M283.729 366.453a555.77 555.77 0 0 0-1.046 66.961 612.88 612.88 0 0 0 6.539 68.007 141.146 141.146 0 0 0 46.82-9.678 135.141 135.141 0 0 0 44.2-28.511 192.844 192.844 0 0 0-27.726-61.468 190.893 190.893 0 0 0-37.4-40.281 25.964 25.964 0 0 0-17.263-2.877 27.34 27.34 0 0 0-14.124 7.847Zm-105.148-.002c-10.2 19.617-20.4 41.328-30.342 64.607-8.37 19.356-15.432 38.189-21.71 55.975a86.96 86.96 0 0 1-23.541-8.109c-21.448-10.986-42.635-25.372-47.605-34 6.8-14.125 28.51-37.4 49.175-57.545a195.126 195.126 0 0 1 44.723-32.175 26.116 26.116 0 0 1 17.263.785 28.648 28.648 0 0 1 12.294 10.463l-.257-.001Z"/>
  <path fill="#fff" d="M296.022 523.653h3.924c-.785-16.74-1.569-39.5-2.616-62.253-.785-22.756-1.831-45.774-2.616-62.253-.523-11.247 2.093-18.833 8.109-22.756l.785-.523-2.354-3.139c-7.585 4.708-11.247 13.6-10.724 26.68.785 16.479 1.569 39.235 2.616 62.253.785 22.756 1.831 45.774 2.616 62.253l.26-.262Z"/>
  <path fill="#F6CA41" d="M298.376 509.266c-1.831-25.11-3.662-50.482-5.231-76.116-1.308-22.756-2.616-45.513-3.663-67.746 0-1.569 2.616-2.877 2.616-4.447a114.745 114.745 0 0 0-18.31-1.046 73.729 73.729 0 0 0-14.647 1.569c1.139-.043 2.28.045 3.399.262 3.924.262 7.586 0 11.248 0a6.544 6.544 0 0 1 5.644 3.023 6.55 6.55 0 0 1 .371 6.393c-8.108 15.432-28.772 26.157-52.313 23.8-26.157-2.616-46.036-15.694-48.128-34a3.666 3.666 0 0 1 .951-3.041 3.657 3.657 0 0 1 2.972-1.144c5.231.523 10.724 1.046 15.957 1.569a94.145 94.145 0 0 0-10.987-3.4h-.262c-11.508-2.877-23.279 3.4-27.988 14.125a11.115 11.115 0 0 0-1.046 3.139 8.304 8.304 0 0 1-.785 2.354c-1.308 4.708-2.877 9.678-4.185 14.648-.523 2.092-1.046 3.923-1.569 6.016-1.046 3.4-1.831 6.8-2.877 10.2-10.723 39.497-20.401 77.947-29.033 115.613 18.571 8.109 54.144 29.034 95.733 29.819a233.09 233.09 0 0 0 84.224-14.386c-.785-8.893-1.569-18.048-2.093-27.2l.002-.004Z"/>
  <path fill="#fff" d="m131.234 488.864 19.879-62.515v-.523c-1.046-3.662-1.831-7.062-2.616-10.724-.785-3.662-1.571-7.324-2.615-10.724l-4.447 1.046c.785 3.4 1.569 7.062 2.354 10.724l2.354 10.2-19.617 61.208 4.447 1.308h.261Z"/>
  <path fill="#D5696E" d="M267.773 361.743c7.585-24.326 18.048-58.329 17.787-60.684l-89.195-18.309-4.447 25.372-8.37 48.128h-1.046a3.53 3.53 0 0 0-2.537.939 3.518 3.518 0 0 0-1.125 2.461c1.569 18.833 21.448 31.911 48.128 34.788 26.157 2.616 48.39-10.724 54.406-29.034a3.232 3.232 0 0 0-3.139-4.185c-3.662 0-7.062.262-10.724.262l.262.262Z"/>
  <path fill="#983831" d="M283.466 310.214c-3.924 13.6-10.463 34.788-15.956 52.575-20.4-1.308-54.667-4.97-72.716-47.082 30.342 2.616 57.806-1.046 78.208-3.923 2.877-.262 6.278-.785 10.463-1.569l.001-.001Z"/>
  <path fill="#D5696E" d="M337.873 242.207a68.236 68.236 0 0 1 7.062-33.742c6.539-12.817 17.263-22.495 32.7-.785 27.2 38.712-13.34 74.808-38.712 57.806l-1.046-23.279h-.004Z"/>
  <path fill="#D5696E" d="M370.307 219.189c-5.231-2.877-12.032-2.092-17 1.308a15.33 15.33 0 0 0-6.278 15.432 17.715 17.715 0 0 0 4.447 9.155 2.21 2.21 0 0 0 2.418.481 2.218 2.218 0 0 0 .721-3.62c-3.4-3.4-3.923-9.416-1.831-13.6.283-.001.559.091.785.262a5.778 5.778 0 0 1 2.093.262h1.569c.523 0 1.046.523 1.831.785.262 0 .523.262.785.523l.262.262c.523.523 1.046.785 1.308 1.308l.262.261v.262s.262.523.523.523c.262.523.785 1.046 1.046 1.569v.523c0 .262.262.523.262 1.046a2.319 2.319 0 0 0 2.877 1.57 2.322 2.322 0 0 0 1.57-2.878 17.349 17.349 0 0 0-12.294-10.986 12.183 12.183 0 0 1 12.294-.785c2.616 1.308 4.708-2.616 2.093-3.923l.257.26Z" opacity=".5"/>
  <path fill="#D5696E" d="M349.12 295.566c-1.308 2.354-11.77 37.4-89.979 41.589-29.3 1.569-80.824 4.447-121.629-34.527C83.629 251.361 98.54 176.287 98.54 175.507c2.092-12.817 15.17-122.152 154.062-100.7l55.191 27.2c4.708 4.185 26.68 27.2 40.281 75.854 15.956 56.76 6.016 106.981.785 117.444l.261.261Z"/>
  <path fill="#983831" d="M260.71 223.897c.278.937.454 1.902.523 2.877.048 3.957.486 7.9 1.308 11.771 0 .523.785 5.231 1.569 5.493 13.34 1.308 17 8.893 9.155 15.432-3.662 2.877-9.155 3.662-13.863 3.662a12.536 12.536 0 0 1-12.294-11.771 190.399 190.399 0 0 1 0-17.263c0-4.97-.785-15.432 4.97-17.787 4.185-1.569 7.585 3.662 8.893 7.847l-.261-.261Z"/>
  <path fill="#D5696E" d="M133.327 273.333a66.085 66.085 0 0 0-12.556-32.174c-8.632-11.509-20.925-19.356-32.173 4.708-20.4 42.635 25.634 71.408 47.867 50.482l-2.877-23.018-.261.002Z"/>
  <path fill="#D5696E" d="M97.492 256.331a16.552 16.552 0 0 1 17-1.569 15.588 15.588 0 0 1 8.9 14.124 16.163 16.163 0 0 1-2.877 9.678 2.224 2.224 0 0 1-3.691-.41 2.234 2.234 0 0 1 .291-2.467 12.261 12.261 0 0 0-.523-13.6 3.78 3.78 0 0 0-.785.523 2.83 2.83 0 0 0-1.831.785c-.262 0-.523.262-.785.523h-.262c-.523.262-1.046.785-1.569 1.046 0 0-.523.523-.785.523l-.262.262c-.523.523-.785 1.046-1.308 1.569l-.262.523v.262c.002.283-.09.559-.262.785a12.805 12.805 0 0 0-.785 1.831v1.569a2.255 2.255 0 0 1-4.084.916 2.253 2.253 0 0 1-.363-1.701 16.924 16.924 0 0 1 10.463-12.817 12.215 12.215 0 0 0-12.294 1.308c-2.354 1.831-4.97-1.831-2.616-3.662l-1.31-.001Z" opacity=".5"/>
  <path fill="#983831" d="M160.79 260.775c0 13.078 12.294 23.279 26.941 23.279 14.647 0 26.68-10.986 26.418-23.8 0-13.078-12.294-23.279-26.941-23.279-14.647 0-26.677 10.986-26.418 23.8Zm137.324-3.397c2.616 12.817 16.479 20.664 31.126 17.525 14.386-3.139 24.064-15.956 21.187-28.511-2.616-12.817-16.479-20.664-31.126-17.525-14.386 3.139-24.064 15.956-21.187 28.511Z" opacity=".5"/>
  <path fill="#000" d="M169.423 191.724s14.386-32.7 42.9-17.525c0 0-34.007-37.404-42.9 17.525Zm111.166-18.309s29.034-20.664 45.774 7.062c0 0-9.674-49.698-45.774-7.062Z"/>
  <path fill="#000" d="M80.23 183.093c6.277 50.748 41.066 67.748 41.066 67.748-6.801-30.344 8.893-65.133 16.482-79 42.374-13.078 31.348-51.7 96.491-54.021 71.366 8.879 55.218 53.5 104.654 68.93 7.585 13.863 12.032 49.959 15.432 68.269 0 0 33.481-88.409 27.726-157.986-1.569-19.094-17.786-36.358-36.1-53.883-72.454-69.838-109.335-34.265-116.659-24.849-6.539-9.155-42.9-43.159-117.182 29.034-44.728 43.682-36.1 99.4-31.65 135.753l-.26.005Z"/>
  <path fill="#fff" d="m128.096 168.184-42.112 38.973s9.155 23.279 14.648 25.634l32.7-27.465s-5.493-28.772-5.231-37.4l-.005.258Zm193.56 35.045a24.57 24.57 0 0 0-5.357-13.213 24.563 24.563 0 0 0-26.052-8.116 24.562 24.562 0 0 0-17.468 20.962 24.556 24.556 0 0 0 26.644 27.047 24.45 24.45 0 0 0 9.213-2.68 24.438 24.438 0 0 0 13.02-24Z"/>
  <mask id="a" width="50" height="51" x="272" y="180" maskUnits="userSpaceOnUse" style="mask-type:luminance">
    <path fill="#fff" d="M321.656 203.229a24.57 24.57 0 0 0-5.357-13.213 24.563 24.563 0 0 0-26.052-8.116 24.562 24.562 0 0 0-17.468 20.962 24.556 24.556 0 0 0 26.644 27.047 24.45 24.45 0 0 0 9.213-2.68 24.438 24.438 0 0 0 13.02-24Z"/>
  </mask>
  <g mask="url(#a)">
    <path fill="#000" d="m311.194 210.296 8.37-4.708a14.756 14.756 0 0 1 3.411 7.668 14.759 14.759 0 0 1-1.318 8.288 14.982 14.982 0 0 1-27.658-1.099 14.981 14.981 0 0 1 20.334-18.78l-2.877 8.893-.262-.262Z"/>
  </g>
  <path fill="#000" d="M321.656 203.234c-1.831-12.817-13.863-22.495-26.68-20.925-12.817 1.046-22.756 12.555-22.233 25.372-2.354-13.34 8.632-26.941 22.233-27.988 13.6-1.569 26.68 9.678 26.68 23.541Z"/>
  <path fill="#000" d="M312.24 186.755c2.877 1.046 6.016.262 8.632-1.308a9.8 9.8 0 0 0 3.139-3.4 6.793 6.793 0 0 0 .785-4.447 24.37 24.37 0 0 1-5.754 4.97c-2.093 1.308-4.185 2.354-6.8 4.185h-.002Zm5.754 5.493a9.98 9.98 0 0 0 8.632 0 9.415 9.415 0 0 0 3.662-2.877 7.107 7.107 0 0 0 1.569-4.447 28.867 28.867 0 0 1-6.539 3.924c-2.354 1.046-4.708 1.831-7.324 3.139v.261Zm2.355 7.324c2.616 1.831 5.754 1.831 8.632 1.046a9.862 9.862 0 0 0 3.924-2.354 7.98 7.98 0 0 0 2.093-4.185 32.62 32.62 0 0 1-7.062 3.139c-2.354.785-4.708 1.046-7.585 2.092l-.002.262Z"/>
  <use xlink:href="#b"/>
  <mask id="c" width="50" height="51" x="178" y="186" maskUnits="userSpaceOnUse" style="mask-type:luminance">
    <use xlink:href="#b"/>
  </mask>
  <g mask="url(#c)">
    <path fill="#000" d="m220.429 216.05 2.354-9.155a15.437 15.437 0 0 0-15.956 2.092 15.034 15.034 0 0 0-1.831 21.187 15.038 15.038 0 0 0 21.187 1.831 14.893 14.893 0 0 0 1.831-20.925l-7.847 5.231.262-.261Z"/>
  </g>
  <path fill="#000" d="M178.579 214.219c-2.877-13.34 7.847-27.2 21.448-28.249 13.6-1.831 26.94 9.155 27.199 22.756-2.093-12.555-14.385-21.972-26.94-20.4-12.817 1.308-22.495 13.078-21.71 25.9l.003-.007Z"/>
  <path fill="#000" d="M183.025 198.002c-2.877-.523-5.493-.785-7.847-1.308a33.54 33.54 0 0 1-7.324-2.354 7.594 7.594 0 0 0 2.354 3.924 9.794 9.794 0 0 0 4.185 1.831c3.139.523 6.016 0 8.37-2.354l.262.261Zm-2.353 5.754h-8.109a20.366 20.366 0 0 1-7.585-1.046 6.54 6.54 0 0 0 3.139 3.4 8.595 8.595 0 0 0 4.447 1.046 9.801 9.801 0 0 0 7.847-3.662l.261.262Zm-2.093 6.801c-2.877 0-4.97.785-7.324 1.046a63.5 63.5 0 0 1-7.062 0 6.659 6.659 0 0 0 3.139 2.877c1.35.43 2.769.607 4.185.523a9.89 9.89 0 0 0 6.8-4.185l.262-.261Z"/>
  <path fill="#DBF22E" d="m132.281 164.783 239.33-8.893s27.465 93.9-58.591 103.319c-36.881 2.877-31.65-12.817-45.251-37.927-6.016-6.8-21.972-10.986-26.68-1.046-4.97 9.94-.785 39.235-30.08 41.328-29.295 2.093-81.605 3.926-78.728-97.042v.261Z" opacity=".5"/>
  <path fill="#DBF22E" d="M322.44 260.774c-2.877.523-5.754 1.046-8.893 1.308-39.758 3.139-35.573-14.648-48.913-39.235a19.34 19.34 0 0 0-13.863-5.493 6.9 6.9 0 0 0-6.539 4.185 34.292 34.292 0 0 0-2.354 6.8c-2.877 9.94-4.97 34.265-30.6 36.358-12.294.785-35.05 2.877-44.2-4.447-18.833-15.171-44.728-56.237-38.712-96v-2.092c.262 0 245.35-8.893 245.35-8.893l.785 2.354c.523 2.092 14.909 52.052-11.771 83.44-9.416 11.247-23.018 18.571-40.543 21.972l.253-.257Zm-74.808-48.651a7.224 7.224 0 0 0 2.354-.262c7.324-.523 15.956 2.877 20.664 8.109l.523.523c13.6 24.849 7.062 38.973 41.589 36.1 19.617-2.092 34.788-9.155 44.728-20.925 21.972-25.633 13.863-66.438 11.509-76.9l-233.318 8.631c-7.062 49.7 27.2 81.086 36.881 88.933 7.585 6.278 28.249 3.4 38.189 2.616 20.925-1.569 23.541-11.509 26.418-21.449.785-2.616 0-16.217.785-18.31 1.831-3.924 5.231-6.278 9.94-7.062l-.262-.004Z" opacity=".5"/>
  <path fill="#DBF22E" d="M237.693 219.451c-1.046 2.354-3.924 12.555-4.708 15.432-1.831 6.539-3.4 14.648-7.585 20.4 6.278-4.708 7.847-16.217 9.94-23.541.785-2.616 3.139-11.247 4.185-13.34a10.76 10.76 0 0 1 4.97-5.231 13.844 13.844 0 0 0-7.062 6.278l.26.002Zm119.535 16.217a52.853 52.853 0 0 1-17.525 13.34c7.847-3.662 14.386-8.37 19.356-14.386 21.972-25.634 13.863-66.438 11.509-76.9l-233.318 8.631v.785l231.487-8.37c2.354 10.2 10.463 51.267-11.509 76.9Zm-32.696 24.064c-2.877.523-5.754 1.046-8.893 1.308-39.758 3.139-35.573-14.648-48.913-39.235a19.356 19.356 0 0 0-13.863-5.493 7.244 7.244 0 0 0-4.185 1.308c.785 0 1.308-.262 2.093-.262a19.36 19.36 0 0 1 13.863 5.493c13.34 24.587 9.155 42.635 48.913 39.235 3.139-.262 6.016-.785 8.893-1.308a78.936 78.936 0 0 0 23.279-8.109 84.023 84.023 0 0 1-21.187 7.062v.001Z"/>
  <path fill="#DBF22E" d="M213.628 263.656c-12.294.785-35.05 2.877-44.2-4.447-18.571-15.171-44.728-56.237-38.712-96v-1.303h-1.574v2.092c-6.278 39.758 19.618 80.824 38.45 95.995 9.155 7.324 31.911 5.231 44.2 4.447 8.109-.523 13.863-2.354 18.31-4.708a49.057 49.057 0 0 1-16.217 3.923l-.257.001Z"/>
  <path fill="#1C1C1B" d="M236.124 299.751a26.028 26.028 0 0 0 15.694 4.708c12.555 0 20.141-4.97 23.279-10.986 2.877-5.231 2.354-10.986-.785-13.6a7.475 7.475 0 0 0-6.016-1.046c-14.386 2.876-35.048-1.309-35.048-1.309h-2.617c-6.016 1.569-4.97 14.648 5.231 21.972l.262.261Z"/>
</svg>