<svg xmlns="http://www.w3.org/2000/svg" xmlns:xlink="http://www.w3.org/1999/xlink" fill="none" viewBox="0 0 584 853">
  <defs>
    <path id="a" d="M292.223 783.493c158.812 0 287.555-16.093 287.555-35.946 0-19.852-128.743-35.946-287.555-35.946-158.813 0-287.555 16.094-287.555 35.946 0 19.853 128.742 35.946 287.555 35.946Z"/>
    <path id="b" d="M439.453 723.507c29.778 0 42.935 28.969 29.386 64.7-13.549 35.731-48.668 64.7-78.446 64.7s-42.936-28.969-29.386-64.7 48.667-64.7 78.446-64.7Z"/>
    <path id="c" fill="#D87E6E" d="M208.674 229.854c5.156 10.122 16.952 17.326 22.587 17.308l3.654.018v-51.751s-6.622-12.078-15.989-10.778c-12.845 1.778-21.52 23.071-10.251 45.2l-.001.003Z"/>
    <path id="d" fill="#D87E6E" d="M451.954 195.429v51.752l3.654-.018c5.634.018 17.436-7.185 22.587-17.308 11.269-22.133 2.593-43.426-10.251-45.2-9.368-1.305-15.99 10.774-15.99 10.774Z"/>
  </defs>
  <g fill="#C6C6C6" opacity=".65">
    <use xlink:href="#a"/>
    <use xlink:href="#b"/>
    <g opacity=".5">
      <use xlink:href="#a"/>
      <use xlink:href="#b"/>
    </g>
  </g>
  <path fill="#FF647F" d="M132.708 179.937c0-45.161 94.344-95.4 210.728-95.4 116.384 0 210.728 50.244 210.728 95.4 0 45.156-94.344 68.146-210.728 68.146-116.384 0-210.728-22.981-210.728-68.146Z"/>
  <path fill="#BC5637" d="M132.708 179.937c0-45.161 94.344-95.4 210.728-95.4 116.384 0 210.728 50.244 210.728 95.4 0 45.156-94.344 68.146-210.728 68.146-116.384 0-210.728-22.981-210.728-68.146Z"/>
  <path fill="#FF647F" d="M485.988 174.264c0-26.345-63.823-55.651-142.552-55.651-78.729 0-142.552 29.306-142.552 55.651 0 0 33.543-11.618 142.552-11.618 109.009 0 142.552 11.618 142.552 11.618Z" opacity=".5"/>
  <path fill="#592929" d="M429.012 335.325c19.319-11.778 20.1-26.529 20.1-26.529 2.244 12.06 1.386 20.226.638 24.113a1.24 1.24 0 0 0 .558 1.254 1.248 1.248 0 0 0 1.373-.022c20.68-12.636 15.536-49.894 15.536-49.894 5.929 19.386 4.739 40.14 3.979 48a1.262 1.262 0 0 0 .697 1.243 1.264 1.264 0 0 0 1.412-.195c28.062-26.627 8.755-64.529 8.755-113.84 0-49.311 3.329-79.893-11.514-118.861-23.8-62.493-77.784-91.468-127.12-78.47-49.33-13-103.313 15.97-127.114 78.47-14.843 38.962-11.514 68.857-11.514 118.861 0 50.004-19.306 87.213 8.755 113.84a1.261 1.261 0 0 0 1.952-.319 1.27 1.27 0 0 0 .157-.729c-.76-7.86-1.949-28.613 3.979-48 0 0-5.144 37.258 15.536 49.894a1.243 1.243 0 0 0 1.84-.521c.099-.223.131-.47.091-.711-.742-3.887-1.607-12.054.637-24.113 0 0 .785 14.751 20.1 26.529.209.127.448.196.693.2h169.78c.245-.004.484-.073.694-.2Z"/>
  <path stroke="#592929" stroke-linecap="round" stroke-linejoin="round" stroke-width=".15" d="M207.292 172.571c0 62.3-32.47 121.455-16.763 140.246"/>
  <path stroke="#592929" stroke-linecap="round" stroke-linejoin="round" stroke-width=".15" d="M207.292 210.27c0 23.807-15.064 65.559-11.575 86.7 2.612 15.849 10.1 21.458 10.1 21.458m276.338-70.342c3.642 15.094 22.581 62.278 1.251 81.15"/>
  <path stroke="#592929" stroke-linecap="round" stroke-linejoin="round" stroke-width=".15" d="M481.058 174.263c0 45.333 21.5 111.566 4.623 132.944"/>
  <path stroke="#451E2F" stroke-linecap="round" stroke-linejoin="round" stroke-width=".15" d="M467.68 198.965c0 55.1 21.311 94.368 10.135 120.627"/>
  <path stroke="#451E2F" stroke-linecap="round" stroke-linejoin="round" stroke-width=".15" d="M460.133 199.897c0 53.438 18.013 76.5 20.925 99.083m-29.103-58.441c0 28.012 11.857 57.864 1.741 85.349m-20.307-83.056c5.763 60.323-6.659 72.554-11.324 80.114M219.193 198.965c0 55.1-21.311 94.368-10.135 120.627"/>
  <path stroke="#451E2F" stroke-linecap="round" stroke-linejoin="round" stroke-width=".15" d="M226.739 199.897c0 53.438-18.012 76.5-20.925 99.083m29.103-58.441c0 28.012-11.857 57.864-1.741 85.349m20.306-83.056c-5.763 60.323 6.658 72.554 11.324 80.114"/>
  <path fill="#592929" d="M343.436 131.188c-89.04 0-127.715 28.73-138.9 39.257.312-24.518 2.47-45.4 11.784-69.844 23.8-62.493 77.783-91.468 127.113-78.47 49.33-13 103.313 15.977 127.12 78.47 9.313 24.45 11.471 45.333 11.784 69.844-11.182-10.527-49.858-39.257-138.901-39.257Z" opacity=".5"/>
  <path fill="#D87E6E" d="M274.451 599.717s-8.491-40.887-14.126-75.485c0 0-11.7-14.616-13.727-37.742-2.027-23.126 13.562-62.9 13.562-62.9.221-30.692.613-50.323.613-50.323 26.712-9.245 48.784-18.871 48.784-18.871l-3.85-44.033h75.485l3.544 40.887c26.651 0 48.668-9.435 71.364-9.435 0 0 10.484 176.094 29.6 257.9H274.472l-.021.002Z"/>
  <path fill="#D87E6E" d="M383.815 340.775a124.392 124.392 0 0 1-40.373 7.326 122.454 122.454 0 0 1-34.928-5.536l-2.814-32.206h75.485l2.636 30.416h-.006Z" opacity=".5"/>
  <path fill="#00A9A0" d="M479.747 710.94a88.716 88.716 0 0 1-66.938 30.489h-45.6l-96.52-115.207.043-1.275c.006-.172.6-17.4.4-24.843 71.206 39.9 215.5-11.637 215.5-11.637 4.807 13.985 11.686 38.865 13.734 53.6a86.734 86.734 0 0 1-20.613 68.876l-.006-.003Z"/>
  <path fill="#00A9A0" d="M270.729 624.946c.006-.172.6-17.4.4-24.843 71.2 39.9 215.5-11.637 215.5-11.637 4.807 13.985 11.686 38.865 13.733 53.6.421 3.04.681 6.099.779 9.166-32.341.772-67.061 27.35-144.446 19.68-38.644-3.832-63.995-25.247-81.291-39.067l-4.715-5.628.043-1.275-.003.004Z" opacity=".5"/>
  <path fill="#D87E6E" d="M111.146 538.163c-9.792-25.591-23.365-75.9-38.3-120.793a265.725 265.725 0 0 1-47.515-32.4 25.112 25.112 0 0 1-4.984-5.9l-10.154-16.624a25.333 25.333 0 0 1-2.33-4.972L.629 336.169l3.635-1.042a8.146 8.146 0 0 1 4.979.184l-4.9-12.262 3.752-1.281a9.429 9.429 0 0 1 9.153 1.772l-5.861-13.4 4.01-1.367a9.408 9.408 0 0 1 10.913 3.789l-3.28-8.2 3.746-1.281a9.435 9.435 0 0 1 11.532 4.807l6.07 12.489 17.859 23.193c9.38 4.089 22.3 6.818 22.3 6.818a31.261 31.261 0 0 0 .49-11.533 145.924 145.924 0 0 1-16.983-20.232 9.43 9.43 0 0 1 1.1-12.029l3.58-3.58a248.441 248.441 0 0 0 22.036 19.729 29.444 29.444 0 0 1 6.431 6.91c15.885 24.138 20.827 46.6 20.827 46.6s21.55 45.32 41.6 91.6l-52.463 70.3-.009.01Z"/>
  <path stroke="#451E2F" stroke-linecap="round" stroke-linejoin="round" stroke-width=".6" d="M15.38 308.777a9.445 9.445 0 0 1 11.392 4.524l7.725 14.635 18.38 23.377m-44.8-29.55a9.436 9.436 0 0 1 11.533 4.807l6.069 12.489 16.964 22.035"/>
  <path stroke="#451E2F" stroke-linecap="round" stroke-linejoin="round" stroke-width=".6" d="M4.258 335.122a8.182 8.182 0 0 1 9.853 4.838l4.194 10.545 15.083 20.637s24.193 3.679 37.356 3.679c15.518 0 21.71 11.759 21.71 11.759"/>
  <path stroke="#451E2F" stroke-linecap="round" stroke-linejoin="round" stroke-width=".6" d="M33.386 371.147a213.427 213.427 0 0 1 23.45-23.261m14.624-.95a162.385 162.385 0 0 0 13.065 3.458 31.27 31.27 0 0 0 .49-11.532 157.726 157.726 0 0 1-7.7-8.271"/>
  <path stroke="#451E2F" stroke-linecap="round" stroke-linejoin="round" stroke-width=".6" d="M84.524 350.388c-2.41 12.219.767 19.545.767 19.545"/>
  <path fill="#D87E6E" d="M138.888 412.539c7.314 15.959 16.149 35.548 24.714 55.32l-52.463 70.3c-8.093-21.152-18.773-59.2-30.673-97.121a197.99 197.99 0 0 0 58.416-28.5l.006.001Z" opacity=".5"/>
  <path fill="#F9F9F9" d="M143.578 414.03a5694.442 5694.442 0 0 1 20.784 47.215c3.329-4.5 6.517-8.82 9.564-12.961 39.637-53.793 57.729-78.342 86.833-78.342h3.329v124.6l-6.333-6.339c-9.577 10.729-45.9 51.3-62.328 67.968-8.883 9.012-24.517 15.107-42.893 16.713-.772.067-1.544.1-2.317.1a28.496 28.496 0 0 1-17.142-5.911c-7.59-5.732-20.931-16.958-25.045-27.724-5.45-14.236-11.888-35.511-19.35-60.139a4984.43 4984.43 0 0 0-8.582-28.135l2.79-2.275.337 1.085c23.3-9.135 44.2-23.414 57.4-33.555l-.423-.926 3.378-1.374h-.002Z"/>
  <path fill="#C8C8C8" d="M173.926 448.276c39.636-53.793 57.729-78.342 86.833-78.342h3.329v124.6l-6.333-6.339c-3.323 3.721-9.9 11.066-17.706 19.723-33.083-38.1-66.129-59.642-66.129-59.642h.006Z" opacity=".5"/>
  <path stroke="#451E2F" stroke-linecap="round" stroke-linejoin="round" stroke-width=".6" d="M149.317 426.946a5660.425 5660.425 0 0 1 15.045 34.3c3.329-4.5 6.517-8.82 9.564-12.961"/>
  <path stroke="#451E2F" stroke-linecap="round" stroke-linejoin="round" stroke-width=".6" d="M164.362 461.237c5.677 12.734 7.737 45.314 4.022 66.846"/>
  <g fill="#5C407B" opacity=".2">
    <path d="m260.385 370.116 5.923-2.4v132.178l-8.467-8.473a5618.56 5618.56 0 0 1-10.919 12.182l-1.839-1.269.362-.4c-13.163-14.794-39-40.912-67.68-58.864l-.687.932 3.1-4.014 5.729-7.97 4.359-5.978s7.348-9.465 9.465-12.2c23.541-29.405 37.365-43.35 60.654-43.724Z"/>
    <path d="M266.308 430.318v69.581l-8.467-8.473a5618.56 5618.56 0 0 1-10.919 12.182l-1.84-1.269.368-.4a357.389 357.389 0 0 0-8.093-8.774c-2.581-31.961 14.457-62.836 14.457-62.836h14.493l.001-.011Z" opacity=".5"/>
    <path d="M237.105 376.439s20.649 53.7 20.649 111.756l-20.649-111.756Z"/>
    <path d="M249.735 420.367a308.78 308.78 0 0 1-56.319 5.561l56.319-5.561Z"/>
  </g>
  <use xlink:href="#c"/>
  <use xlink:href="#c" opacity=".5"/>
  <path stroke="#451E2F" stroke-linecap="round" stroke-linejoin="round" stroke-width=".6" d="M212.147 210.271c1.637-14.224 16.965-18.914 22.771 9.325"/>
  <use xlink:href="#d"/>
  <use xlink:href="#d" opacity=".5"/>
  <path stroke="#451E2F" stroke-linecap="round" stroke-linejoin="round" stroke-width=".6" d="M474.725 210.271c-1.637-14.224-16.965-18.914-22.771 9.325"/>
  <path fill="#D87E6E" d="M343.442 335.521c-35.86 0-103.633-21.336-112.1-96.87-6.063-54.094-13.813-91.339 1.576-131.736 20.778-54.547 70.365-73.327 110.523-73.327s89.745 18.78 110.523 73.327c15.389 40.4 7.639 77.643 1.576 131.736-8.472 75.537-76.238 96.87-112.098 96.87Z"/>
  <path fill="#D87E6E" d="M343.436 131.188c-61.015 0-98.377 13.494-119.456 25.376.227-16.94 2.606-33.034 8.939-49.649 20.778-54.547 70.365-73.327 110.523-73.327s89.745 18.78 110.523 73.327c6.327 16.615 8.706 32.715 8.939 49.655-21.074-11.882-58.44-25.382-119.462-25.382h-.006Z" opacity=".5"/>
  <path stroke="#451E2F" stroke-linecap="round" stroke-linejoin="round" stroke-width=".6" d="M411.379 314.326c-22.85 15.6-49.575 21.195-67.937 21.195a125.15 125.15 0 0 1-66.319-20.11"/>
  <path fill="#592929" d="M343.43 96.492c36.075 12.581 92.461 12.581 92.461 12.581 3.629 42.034 14.487 52.328 24.346 89.893 15-14.414 25.161-59.4 10.318-98.372-23.8-62.493-77.784-91.468-127.114-78.47-49.33-13-103.319 15.97-127.12 78.47-14.843 38.962-4.684 83.952 10.319 98.372 9.853-37.565 20.717-47.858 24.346-89.893 0 0 56.381 0 92.455-12.58h-.011Z"/>
  <path fill="#592929" d="M442.944 147.22a177.905 177.905 0 0 1-7.057-38.147s-56.387 0-92.461-12.58c-36.075 12.58-92.455 12.58-92.455 12.58a177.474 177.474 0 0 1-7.056 38.147c-15.236 5.929-25.793 12.434-32.635 17.59-3.728-19.086-3.213-42.574 5.033-64.21 23.8-62.493 77.79-91.468 127.12-78.47 49.33-13 103.313 15.977 127.114 78.47 8.247 21.642 8.761 45.124 5.033 64.21-6.842-5.156-17.406-11.661-32.641-17.59h.005Z" opacity=".5"/>
  <path stroke="#451E2F" stroke-linecap="round" stroke-linejoin="round" stroke-width=".6" d="M435.891 109.073c2.09 24.217 6.579 37.9 11.894 52.328m-208.711 0c5.316-14.432 9.8-28.111 11.894-52.328"/>
  <path stroke="#451E2F" stroke-linecap="round" stroke-linejoin="round" stroke-width=".6" d="M214.765 124.051s9.147-14.978 36.209-14.978c0 0 56.387 0 92.462-12.58 36.075 12.58 92.455 12.58 92.455 12.58 27.062 0 36.209 14.978 36.209 14.978M343.43 31.007v56.614"/>
  <path stroke="#451E2F" stroke-linecap="round" stroke-linejoin="round" stroke-width=".15" d="M443.077 119.085c19.717 32.415 34.738 46.387 34.738 63.566"/>
  <path stroke="#451E2F" stroke-linecap="round" stroke-linejoin="round" stroke-width=".15" d="M449.116 146.325c13.838 12.329 20.33 11.649 25.156 21.655m-230.489-48.895c-19.717 32.415-34.738 46.387-34.738 63.566"/>
  <path stroke="#451E2F" stroke-linecap="round" stroke-linejoin="round" stroke-width=".15" d="M237.751 146.325c-13.838 12.329-20.33 11.649-25.156 21.655"/>
  <path fill="#D87E6E" d="M411.373 235.505a22.015 22.015 0 1 0 44.03 0 22.015 22.015 0 0 0-44.03 0Zm-135.813 0a22.016 22.016 0 1 1-22.016-22.016 22.025 22.025 0 0 1 15.567 6.449 22.023 22.023 0 0 1 6.449 15.567Z" opacity=".25"/>
  <path fill="#F64365" d="M381.461 261.562a3.117 3.117 0 0 0-2.919-2.992c-5.137-.356-17.406-1.055-34.947-1.055-17.541 0-29.938.7-35.125 1.055a3.115 3.115 0 0 0-2.924 3.01c-.245 8.54 2.091 33.684 38.049 33.684s38.16-25.173 37.866-33.702Z"/>
  <path fill="#FF9FB5" d="M372.496 285.884c-5.6-5.42-14.61-9.491-29.073-9.491-14.463 0-23.316 4.016-28.9 9.38 5.6 5.42 14.61 9.491 29.073 9.491 14.463 0 23.316-4.016 28.9-9.38Z"/>
  <path stroke="#451E2F" stroke-linecap="round" stroke-linejoin="round" stroke-width=".6" d="m344.754 235.506-2.514 10.061m-63.786-52.954s-8.552-2.342-10.754-8.062"/>
  <path fill="#451E2F" d="M267.7 201.847c0 9.552 6.34 17.3 14.151 17.3s14.157-7.743 14.157-17.3-6.34-17.3-14.157-17.3-14.151 7.747-14.151 17.3Zm137.444 17.296c7.815 0 14.15-7.744 14.15-17.296s-6.335-17.296-14.15-17.296-14.15 7.744-14.15 17.296 6.335 17.296 14.15 17.296Z"/>
  <path stroke="#451E2F" stroke-linecap="round" stroke-linejoin="round" stroke-width="2.1" d="M422.133 163.951c-5.193-5.837-25.394-10.092-33.972 2.354m-123.294-2.354c5.193-5.837 25.395-10.092 33.972 2.354"/>
  <path stroke="#451E2F" stroke-linecap="round" stroke-linejoin="round" stroke-width=".6" d="M408.547 192.613s8.553-2.342 10.753-8.062"/>
  <path fill="#F9F9F9" d="M237.762 204.992c0 20.845 19.711 37.742 44.033 37.742 24.322 0 44.037-16.894 44.037-37.742 0-36.424-19.711-37.742-44.033-37.742-24.322 0-44.037 0-44.037 37.742Zm211.354 0c0 20.845-19.711 37.742-44.033 37.742-24.322 0-44.033-16.9-44.033-37.742 0-36.424 19.711-37.742 44.033-37.742 24.322 0 44.033 0 44.033 37.742Z" opacity=".25"/>
  <path fill="#F9F9F9" d="m257.909 236.672 39.71-68.777a92.276 92.276 0 0 0-7.382-.521L252.347 233a45.002 45.002 0 0 0 5.561 3.679l.001-.007Zm58.33-61.685a27.007 27.007 0 0 0-11.949-5.935l-40.6 70.322a49.528 49.528 0 0 0 13.549 3.164l39-67.545v-.006Zm88.845-7.737c-1.38 0-2.735.006-4.083.025l-33.273 57.631a38.768 38.768 0 0 0 4.635 5.279l36.333-62.928c-1.2 0-2.4-.006-3.611-.006l-.001-.001Zm34.651 7.382a25.763 25.763 0 0 0-12-5.843l-40.753 70.586a49.535 49.535 0 0 0 13.55 3.164l39.2-67.9.003-.007Z" opacity=".25"/>
  <path fill="#13DBD4" d="M405.083 163.927c-20 0-42.341.1-46.583 30.134a33.568 33.568 0 0 0-30.122.012c-4.243-30.036-26.584-30.146-46.59-30.146-24.352 0-47.362 0-47.362 41.071 0 22.648 21.244 41.071 47.362 41.071 26.118 0 47.362-18.424 47.362-41.071 0-.233-.024-.429-.024-.662 1.594-1.441 6.29-4.96 14.316-4.96s12.734 3.531 14.3 4.942c0 .239-.025.435-.025.674 0 22.648 21.244 41.071 47.362 41.071 26.118 0 47.362-18.424 47.362-41.071 0-41.071-23-41.071-47.362-41.071l.004.006Zm-123.294 75.479c-22.439 0-40.7-15.438-40.7-34.413 0-34.413 16.192-34.413 40.7-34.413 24.508 0 40.7 1.662 40.7 34.413.003 18.975-18.252 34.413-40.7 34.413Zm123.294 0c-22.446 0-40.7-15.438-40.7-34.413 0-32.752 15.469-34.413 40.7-34.413s40.7 0 40.7 34.413c.004 18.975-18.255 34.413-40.7 34.413Z"/>
  <path fill="#13DBD4" d="M405.084 167.434c-25.235 0-40.7 1.662-40.7 34.413 0 .362.05.717.062 1.073.674-30.673 15.971-32.341 40.643-32.341s39.962.086 40.636 32.341c.012-.362.061-.711.061-1.073 0-34.413-16.192-34.413-40.7-34.413h-.002Zm-123.295 0c-24.512 0-40.7 0-40.7 34.413 0 .362.049.711.062 1.073.674-32.249 16.652-32.341 40.636-32.341s39.968 1.674 40.642 32.341c.013-.362.068-.711.068-1.073-.004-32.751-15.473-34.413-40.708-34.413Z" opacity=".5"/>
  <path fill="#13DBD4" d="M359.008 201.173c-1.569-1.416-7.528-4.942-15.566-4.942s-13.979 3.519-15.573 4.96c0 22.648-19.962 41.727-46.08 41.727s-46.54-17.774-47.288-39.857c-.012.662-.068 1.245-.068 1.931 0 22.648 21.244 41.071 47.362 41.071 26.118 0 47.362-18.424 47.362-41.071 0-.233-.024-.429-.024-.662 1.594-1.441 6.291-4.96 14.316-4.96s12.734 3.531 14.3 4.942c0 .239-.025.435-.025.674 0 22.648 21.244 41.071 47.362 41.071 26.118 0 47.362-18.424 47.362-41.071 0-.687-.055-1.269-.067-1.931-.748 22.084-21.649 39.858-47.289 39.858s-46.08-19.1-46.08-41.746l-.004.006Z" opacity=".5"/>
  <path stroke="#451E2F" stroke-linecap="round" stroke-linejoin="round" stroke-width=".3" d="M405.083 246.066c-26.118 0-47.362-18.424-47.362-41.071 0-.239.024-.441.024-.674-1.569-1.416-6.271-4.942-14.3-4.942s-12.722 3.519-14.316 4.96c0 .233.025.423.025.662 0 22.648-21.244 41.071-47.362 41.071m39.309-55.586c-4.329-18.773-18.5-19.9-39.312-19.9-24.512 0-40.7 0-40.7 34.413m204.698-.007c0-34.413-16.192-34.413-40.7-34.413-20.821 0-34.99 1.134-39.312 19.913"/>
  <path fill="#D36E49" d="M198.751 124.055c5.953-35.351 19.012-65.822 29.429-85.889a63.06 63.06 0 0 1 46.007-33.205C290.035 2.404 312.61.209 343.43.209c30.82 0 53.4 2.195 69.243 4.752a63.042 63.042 0 0 1 46.007 33.205c10.41 20.073 23.475 50.544 29.428 85.889 0 0-46.387-27.559-144.673-27.559s-144.678 27.559-144.678 27.559h-.006Z"/>
  <path fill="#D36E49" d="M198.745 124.05a265.072 265.072 0 0 1 6.952-29.925c36.939-16.866 85.062-28.46 137.733-28.46 52.671 0 100.769 11.594 137.708 28.454a263.971 263.971 0 0 1 6.959 29.938S441.71 96.498 343.424 96.498s-144.678 27.559-144.678 27.559l-.001-.007Z" opacity=".5"/>
  <path fill="#D36E49" d="M476.092 78.245a274.727 274.727 0 0 1 12.011 45.8S441.716 96.486 343.43 96.486 198.751 124.05 198.751 124.05a282.31 282.31 0 0 1 16.774-58.385"/>
  <path stroke="#451E2F" stroke-linecap="round" stroke-linejoin="round" stroke-width=".6" d="M476.092 78.245a274.727 274.727 0 0 1 12.011 45.8S441.716 96.486 343.43 96.486 198.751 124.05 198.751 124.05a282.31 282.31 0 0 1 16.774-58.385"/>
  <path stroke="#451E2F" stroke-linecap="round" stroke-linejoin="round" stroke-width=".3" d="M343.43 96.492v-.227"/>
  <path stroke="#451E2F" stroke-dasharray=".75 .5" stroke-linecap="round" stroke-linejoin="round" stroke-width=".3" d="M343.43 95.958V3.736"/>
  <path stroke="#451E2F" stroke-linecap="round" stroke-linejoin="round" stroke-width=".3" d="M343.43 3.583V3.35"/>
  <path fill="#00A9A0" d="m368.757 741.432 3.169-4.353c-.257-.8-26.584-80.322-96.385-115l-1.2-.331c-105.532-9.16-189.73-5.095-221.028-2.918a34.192 34.192 0 0 0-23.335 11.355 84.084 84.084 0 0 0-12.305 17.872 34.031 34.031 0 0 0-3.33 19.907 122.263 122.263 0 0 0 7.346 28.135 34.23 34.23 0 0 0 16.763 18.24A179.148 179.148 0 0 0 70.73 726.19c1.685.456 3.402.782 5.137.975 20.8 2.385 132.681 14.273 292.89 14.273l-.001-.006Z"/>
  <path fill="#00A9A0" d="M257.828 620.415c5.444.411 10.95.856 16.517 1.337l1.2.331c22.25 11.054 40.067 26.67 54.045 42.831-37.159-12.912-58.458-40.661-71.762-44.499Z" opacity=".5"/>
  <path stroke="#451E2F" stroke-linecap="round" stroke-linejoin="round" stroke-width=".6" d="M371.925 737.082c-.178-.546-12.507-37.792-42.524-72.4"/>
  <path fill="#F9F9F9" d="M256.824 422.955c.227-30.011.6-49.563.607-49.759l2.238-3.084c10.2-3.531 19.742-7.13 27.639-10.22 4 10.092 14.671 25.971 42.285 25.971 49.453 0 74.4-26.645 84.332-41.157 2.931-.558 5.831-1.14 8.706-1.723 11.428-2.311 22.225-4.5 33.451-4.5l3.323 3.127c.1 1.686 9.822 162.539 27.215 246.852 0 0-144.293 51.537-215.5 11.636-.76-3.7-8.626-41.948-13.96-74.522a79.48 79.48 0 0 1-13.893-38.8c-1.956-22.366 11.551-58.6 13.556-63.823l.001.002Z"/>
  <g fill="#5C407B" opacity=".2">
    <path d="M254.61 424.538c.221-29.8.6-49.189.6-49.385l.08-3.869 3.654-1.263c18.344-6.346 34.628-12.943 42.807-16.345a7.036 7.036 0 0 1 3.973-.435c1.1.19 2.465.429 3.6.607l.221 2.551-5.224 2.219c4.795 34.573 25.272 79.047 25.272 79.047a459.182 459.182 0 0 0 57.361-84.436l-2.238.025-.362-4.157 4.721-1.306c.48-.131.974-.212 1.471-.239 11.1-.576 21.514-2.685 31.642-4.739 11.544-2.336 22.445-4.543 33.892-4.543h5.229l.313 5.217c.1 1.753 16.927 175.978 35.658 256.569 5.609 14.15 5.272 28.576 5.272 43.708-32.752 0-67.349 27.5-145.868 19.717-54.486-5.4-82.633-36.412-98.881-41.072 0 0-1.986-12.924 4.825-20.048-5.34-11.888-2.391-27.381-7.566-73.9a82.4 82.4 0 0 1-14-39.484c-1.956-22.354 11.085-57.956 13.55-64.431l-.002-.008Z"/>
    <path d="M258.614 572.981c-.533-10.876-1.214-25.542-3.55-46.522a82.397 82.397 0 0 1-14-39.483c-1.956-22.354 11.085-57.956 13.55-64.431.092-12.213.208-22.672.313-30.784"/>
    <path d="M249.736 407.217s1.515 9.681 4.874 15.328l-4.874-15.328Zm27.068 119.236c67.95-14.941 108.518 11.066 128.481 27.038l-128.481-27.038Zm-5.677 73.651s26.976 26.382 114.8 12.158l-114.8-12.158Z"/>
    <path d="M405.286 581.57s-31.182 26.719-98.421 26.719l98.421-26.719Z"/>
  </g>
  <path fill="#00A9A0" d="M496.68 421.876a30.908 30.908 0 0 0-21.722 10.987c-5.837 6.977-13.145 17.6-17.2 30.68-13.507 43.6-32.942 106.777-48.889 160.27-2.465 4.788-28.264 56.4-28.264 114.294v3.329h55.172a81.545 81.545 0 0 0 76.177-51.684 378.101 378.101 0 0 0 15.665-48.7c7.909-32.1 17.706-78.348 32.623-154.329.449-2.27.69-4.577.717-6.891a94.198 94.198 0 0 0-4.954-30.189 30.839 30.839 0 0 0-10.956-15.3c-12.434-8.945-30.306-13.6-48.374-12.458l.005-.009Z"/>
  <path stroke="#451E2F" stroke-linecap="round" stroke-linejoin="round" stroke-width=".6" d="M408.872 623.812c-2.465 4.788-28.264 56.4-28.264 114.294"/>
  <path fill="#D87E6E" d="M56.653 623.659c76.662 6.051 214.37 54.627 262.179 54.627 49.342-3.372 82.769-17.21 110.646-17.21 26.3 0 40.323 22.3 40.323 42.384s-14.745 36.283-40.323 42.383c-18.822 4.488-61.3 5.034-110.646 1.662-175.91 0-244.951-17.639-244.951-17.639a307.847 307.847 0 0 1-32.071-11.827 31.113 31.113 0 0 1-16.849-18.718 180.707 180.707 0 0 1-7.18-31.715 31.131 31.131 0 0 1 3.03-18.27 81.441 81.441 0 0 1 9.779-14.708 30.77 30.77 0 0 1 26.063-10.969Z"/>
  <path fill="#D87E6E" d="M24.962 699.321a180.707 180.707 0 0 1-7.18-31.715 31.13 31.13 0 0 1 3.029-18.271 81.447 81.447 0 0 1 9.779-14.708 30.76 30.76 0 0 1 26.063-10.969c76.662 6.051 214.37 54.627 262.179 54.627.282-.019.552-.049.834-.067a432.4 432.4 0 0 1-7.756 69.268c-170.748-.46-238.03-17.621-238.03-17.621a307.839 307.839 0 0 1-32.071-11.827 31.112 31.112 0 0 1-16.847-18.717Z" opacity=".5"/>
  <path fill="#00A9A0" d="M17.857 647.815A84.186 84.186 0 0 1 28.034 632.5a34.127 34.127 0 0 1 28.883-12.164c39.643 3.133 96.4 17.786 146.475 30.71 33.292 8.6 65.265 16.842 89.237 21.042-.356 17.289-2.066 47.7-8.945 78.495-148.7-2.134-209.986-17.326-210.753-17.522a306.898 306.898 0 0 1-32.476-11.98 34.44 34.44 0 0 1-18.651-20.729 184.04 184.04 0 0 1-7.314-32.31 34.29 34.29 0 0 1 3.367-20.227Z"/>
  <path fill="#13DBD4" d="M301.298 753.151a2.617 2.617 0 0 1-2.575 2.042c-10.931-.086-21.4-.251-31.452-.466a2.856 2.856 0 0 1-2.8-2.888v-1.606l1.073.025c7.67-32.347 9.159-65.332 9.374-81.647l-1.189-.264.484-1.68a2.883 2.883 0 0 1 3.378-2.011c11.71 2.489 22.1 4.341 30.581 5.248a2.472 2.472 0 0 1 2.219 2.507c-.356 17.86-2.1 48.852-9.092 80.751l-.001-.011Z"/>
  <path fill="#13DBD4" d="M292.703 754.12a2.545 2.545 0 0 0 2.25-2c7.044-31.991 8.792-63.106 9.147-81a2.382 2.382 0 0 0-.846-1.852c1.68.227 3.384.466 4.936.631a2.437 2.437 0 0 1 2.2 2.477c-.356 17.86-2.1 48.882-9.1 80.8a2.597 2.597 0 0 1-2.544 2.017c-6.474-.049-12.765-.135-18.927-.233 4.288-.178 8.641-.46 12.884-.84Z" opacity=".5"/>
  <path stroke="#451E2F" stroke-linecap="round" stroke-linejoin="round" stroke-width=".6" d="M75.224 622.395c37.706 5.3 85.374 17.608 128.162 28.656 25.622 6.615 50.458 13.022 71.469 17.534m-9.313 81.669c-27.884-.625-52.414-1.71-73.8-3.047"/>
  <path stroke="#451E2F" stroke-linecap="round" stroke-linejoin="round" stroke-width=".6" d="M286.792 755.064c-6.683-.086-13.192-.2-19.527-.343a2.858 2.858 0 0 1-2.8-2.888v-1.606l1.073.024c7.67-32.347 9.16-65.332 9.374-81.646l-1.189-.264.484-1.68a2.881 2.881 0 0 1 3.378-2.011c3.513.748 6.904 1.435 10.172 2.06m-201.43-45.829s11.477 1.845 16.572 6.235"/>
  <path fill="#FF647F" d="M318.833 678.286c7.848-.632 16-.576 16-.576a7.364 7.364 0 0 0 2 1.337c1.396.479 2.836.816 4.3 1.005a18.305 18.305 0 0 0-5.929.791 6.201 6.201 0 0 0-3.979 3.574 56.51 56.51 0 0 0 .994 45.461 6.143 6.143 0 0 0 6.008 3.568 16.238 16.238 0 0 0 5.181-1.22s-3.164 4.488-2.686 7.976c.62 4.537-9.319 7.357-21.323 7.339 3.176 6.088 13.991 3.071 13.991 3.071 15.689.846 30.446 1.269 43.7 1.269 23.426 0 42.125-1.312 52.91-3.881 26.314-6.278 42.022-22.93 42.022-44.542 0-21.612-14.911-44.6-42.537-44.6-13.507 0-28.184 3.17-45.179 6.842-16.081 3.47-34.015 7.345-55.044 9.472 0 0-7.725-2.281-10.423 3.114h-.006Z"/>
  <path fill="#F9F9F9" d="M417.419 748.002c26.314-6.278 42.022-22.93 42.022-44.542 0-20.189-13-41.55-37.221-44.29 2.459-.184 4.887-.312 7.259-.312 27.633 0 42.537 22.979 42.537 44.6 0 21.621-15.714 38.264-42.022 44.542-10.784 2.568-29.484 3.881-52.91 3.881-1.962 0-4.028-.031-6.052-.049 20.349-.227 36.626-1.514 46.381-3.838l.006.008Z"/>
  <path stroke="#451E2F" stroke-linecap="round" stroke-linejoin="round" stroke-width=".3" d="M417.418 748.001c26.314-6.278 42.022-22.93 42.022-44.542 0-16.174-8.344-33.095-24.119-40.6m-89.494 18.21s-6.076 22.519 0 50.605"/>
  <path stroke="#451E2F" stroke-linecap="round" stroke-linejoin="round" stroke-width=".3" d="M346.931 697.065s-2.569 19.055 7.731 36.884"/>
  <path stroke="#451E2F" stroke-linecap="round" stroke-linejoin="round" stroke-width=".6" d="M319.397 747.547s-7.063-.043-8.969-.049m16.584-38.41a56.748 56.748 0 0 0 5.205 20.79 6.143 6.143 0 0 0 6.008 3.568 16.238 16.238 0 0 0 5.181-1.22s-3.164 4.488-2.686 7.976c.619 4.537-9.319 7.357-21.323 7.339 3.176 6.088 13.991 3.072 13.991 3.072 3.581.2 7.112.362 10.588.515m57.344-88.979c-5.42 1.048-11.079 2.268-17.02 3.55-16.081 3.47-34.014 7.345-55.044 9.472 0 0-7.725-2.281-10.423 3.115 7.848-.631 16-.576 16-.576a7.36 7.36 0 0 0 2 1.336c1.396.479 2.836.816 4.3 1.005a18.305 18.305 0 0 0-5.929.791 6.189 6.189 0 0 0-2.394 1.337 6.195 6.195 0 0 0-1.585 2.237 56.811 56.811 0 0 0-4.292 20.956m-8.1-27.086s-3.182-.043-4.647-.135"/>
  <path fill="#D87E6E" d="M413.685 693.546c12.213-54.645 26.939-154.783 47.258-229.023 7.112-22.967 24.31-37.742 24.31-37.742 23.475-5.273 50.353 0 64.387 15.726a88.972 88.972 0 0 1 7.86 40.888c-26.314 106.912-44.2 158.143-77.7 235.841-19.576 45.418-38.018 84.08-51.316 98.139-18.074 19.1-39.477 23.764-56.865 13.727-17.388-10.037-24.052-30.906-16.548-56.111 5.524-18.546 33.273-45.155 58.613-81.438l.001-.007Z"/>
  <path fill="#D87E6E" d="M413.863 692.743c12.182-54.817 26.86-154.329 47.08-228.22 7.112-22.967 24.31-37.742 24.31-37.742 23.475-5.273 50.354 0 64.387 15.726a88.972 88.972 0 0 1 7.86 40.888c-24.94 101.339-42.328 152.668-72.6 223.916-19.69-1.577-45.765-5.452-71.037-14.568Z" opacity=".5"/>
  <path fill="#00A9A0" d="M496.68 421.876c18.068-1.14 35.94 3.513 48.373 12.458a30.808 30.808 0 0 1 10.956 15.3 95.34 95.34 0 0 1 4.972 28.754 36.627 36.627 0 0 1-1.116 9.2c-21.906 88.538-38.576 139.535-60.439 193.482-19.527-.742-52.683-3.881-83.32-15.7 2.784-14.248 5.7-29.993 8.706-46.307 9.338-50.587 19.914-107.93 32.942-155.525 4.053-13.083 11.36-23.709 17.2-30.679a30.894 30.894 0 0 1 21.722-10.987l.004.004Z"/>
  <path fill="#13DBD4" d="M509.825 666.931c-3.881 9.957-7.927 19.926-12.195 30.164a2.519 2.519 0 0 1-2.422 1.576c-21.017-1.024-53.805-4.684-84.828-16.523a2.513 2.513 0 0 1-1.582-2.857c1.913-9.264 3.906-19.5 5.953-30.36a2.49 2.49 0 0 1 1.275-1.746 2.493 2.493 0 0 1 2.159-.099c33.579 14.12 72.634 16.222 89.341 16.419a2.514 2.514 0 0 1 2.057 1.109c.227.338.368.726.412 1.131.043.405-.014.814-.164 1.193l-.006-.007Z"/>
  <path fill="#13DBD4" d="m409.558 675.521.184 1.373c29.594 11.036 67.532 15.757 88.6 16.934l1.189-1.373c-.644 1.551-1.257 3.078-1.907 4.641a2.517 2.517 0 0 1-2.421 1.576c-21.017-1.024-53.806-4.684-84.829-16.523a2.515 2.515 0 0 1-1.582-2.857c.251-1.226.509-2.508.766-3.764v-.007Z" opacity=".5"/>
  <path stroke="#451E2F" stroke-linecap="round" stroke-linejoin="round" stroke-width=".6" d="M419.503 647.637c1.729-9.184 3.5-18.779 5.309-28.577 7.731-41.9 16.321-88.439 26.443-130.228m101.786 25.75c-16.412 63.584-30.281 106.692-46.645 148.9"/>
  <path stroke="#451E2F" stroke-linecap="round" stroke-linejoin="round" stroke-width=".6" d="M451.261 657.299a290.21 290.21 0 0 0 56.258 6.2c.407.004.807.107 1.165.301a2.515 2.515 0 0 1 1.14 3.132 1214.666 1214.666 0 0 1-3.924 9.938m-93.227-17.088c.68-3.537 1.371-7.154 2.072-10.852a2.507 2.507 0 0 1 1.274-1.746 2.493 2.493 0 0 1 2.159-.1 177.212 177.212 0 0 0 22.176 7.553"/>
  <path fill="#FF647F" d="M481.107 722.791c-23.617 54.609-39.306 84.43-50.783 96.557-12.237 12.93-26.056 19.638-39.416 19.638a39.914 39.914 0 0 1-20.171-5.518c-18.718-10.8-25.284-32.733-17.565-58.661 3.47-11.637 14.9-25.756 29.367-43.616 7.989-9.871 16.909-20.882 25.658-32.985A6.35 6.35 0 0 1 413.91 694a794.675 794.675 0 0 1-4.824 6.756c.254.765.383 1.567.38 2.373a22.414 22.414 0 0 1-.877 4.329 18.288 18.288 0 0 1 3.194-5.058 6.184 6.184 0 0 1 4.911-2.122 56.531 56.531 0 0 1 40.9 19.871 6.162 6.162 0 0 1 .735 6.952 16.382 16.382 0 0 1-3.268 4.2s5.4-1 8.369.883c3.863 2.452 14.818-8.393 19.98-20.385a11.304 11.304 0 0 1-2.303 10.992Z"/>
  <path fill="#F9F9F9" d="M370.51 820.433c6.4 3.7 16.37 5.518 23.316 5.518 13.36 0 25.934-4.7 39.416-19.637 8.24-9.129 16.094-21.422 31.85-48.631-15.162 32.623-26.29 52.015-35 61.212-12.237 12.93-26.056 19.638-39.416 19.638a39.917 39.917 0 0 1-20.171-5.518c-15.26-8.81-22.439-25.021-20.386-44.756 1.557 13.983 8.523 25.319 20.391 32.174Z"/>
  <path stroke="#451E2F" stroke-linecap="round" stroke-linejoin="round" stroke-width=".3" d="M406.204 717.5s18.589 2.207 35.455 19.11m-24.045-11.753s16.934 7.731 25.4 23.01m-89.18 54.271a39.742 39.742 0 0 0 16.682 18.3c6.4 3.7 16.37 5.518 23.316 5.518 13.36 0 25.934-4.7 39.416-19.638"/>
  <path stroke="#451E2F" stroke-linecap="round" stroke-linejoin="round" stroke-width=".6" d="m413.685 693.546.987-4.494m39.563 27.246a52.503 52.503 0 0 1 3.133 3.4 6.163 6.163 0 0 1 .736 6.953 16.443 16.443 0 0 1-3.268 4.2s5.4-1 8.369.883c3.863 2.453 14.819-8.393 19.981-20.386a11.319 11.319 0 0 1-2.305 10.993 1756.7 1756.7 0 0 1-9.5 21.587m-111.434 16.219c5.469-8.547 13.323-18.246 22.366-29.417 7.989-9.871 16.909-20.882 25.658-32.984a6.344 6.344 0 0 1 2.215-2.975 6.343 6.343 0 0 1 3.499-1.231 782.337 782.337 0 0 1-4.825 6.756c.254.765.382 1.567.38 2.373a22.402 22.402 0 0 1-.876 4.328 18.288 18.288 0 0 1 3.194-5.058 6.19 6.19 0 0 1 4.911-2.121 56.405 56.405 0 0 1 35.5 14.341m31.216-2.814 2.759-6.493"/>
  <path fill="#FF647F" d="M485.988 174.264c0-26.345-63.824-55.651-142.552-55.651s-142.552 29.306-142.552 55.651l-68.176 5.673c0-45.161 94.344-95.4 210.728-95.4 116.384 0 210.728 50.244 210.728 95.4l-68.176-5.673Z"/>
  <path fill="#BC5637" d="M485.988 174.264c0-26.345-63.824-55.651-142.552-55.651s-142.552 29.306-142.552 55.651l-68.176 5.673c0-45.161 94.344-95.4 210.728-95.4 116.384 0 210.728 50.244 210.728 95.4l-68.176-5.673Z"/>
  <path stroke="#451E2F" stroke-linecap="round" stroke-linejoin="round" stroke-width=".6" d="M485.988 174.264c0-26.345-63.823-55.651-142.552-55.651-78.729 0-142.552 29.306-142.552 55.651m212.973-83.467c32.948 5.978 62.132 15.843 85.227 27.81m-311.301 0c38.534-19.975 94-34.07 155.653-34.07a397.527 397.527 0 0 1 61.751 4.788"/>
  <path fill="#F9F9F9" d="M544.042 456.325c1.968.002 3.927-.26 5.825-.779 7.713-2.1 18.583-6.094 26.566-13.151a22.017 22.017 0 0 0 7.314-18.093 111.672 111.672 0 0 0-6.29-29.895 28.588 28.588 0 0 0-13.7-15.775c-56.546-29.631-81.309-40.146-107.666-40.146l-2.728 1.422c-1 1.435-24.254 35.86-3.01 102.663l1.662 5.212 11.943-11.943 74.381 19.748a22.22 22.22 0 0 0 5.708.748l-.005-.011Z"/>
  <path fill="#C8C8C8" d="m453.352 339.904 2.728-1.422c22.629 0 44.137 7.792 85.527 28.724-41.108-6.609-61.715 25.781-55.927 74.393l-21.728-5.769-11.943 11.943-1.661-5.211c-21.244-66.8 2-101.229 3.01-102.663l-.006.005Z" opacity=".5"/>
  <g fill="#5C407B" opacity=".2">
    <path d="m451.394 340.456 4.58-1.994c17.05 0 31.7 3.745 55.932 14.517 0 0 5.528 2.316 10.758 4.932l18.424 8.849-4.569-.884-5.6-.589c-12.054-1.852-28.526-.569-41.291 21.968-9.932 17.541-9.466 39.845-3.973 56.2l7.553 2.005c-2.196.352-4.416.53-6.64.533l-22.1-5.867-13.623 13.623-2.765-8.688c-21.575-67.839 2.281-103.135 3.3-104.607l.014.002Z"/>
    <path d="M448.233 443.236c-8.142-68.667 18.571-104.153 18.571-104.153l-18.571 104.153Z"/>
  </g>
  <path fill="#D87E6E" d="m302.241 477.679 8.829-17.4a15.586 15.586 0 0 1 3.452-4.525c6.339-5.739 25.615-23.2 41.691-38.018 9.386-8.651 19.748-12.8 34.094-15.5 19.791-3.728 74.486-15.536 108.438-19.828a220.499 220.499 0 0 1 56.54.662 25.31 25.31 0 0 1 20.729 17.553 107.51 107.51 0 0 1 4.463 24.61 18.045 18.045 0 0 1-4.831 13.513c-7.259 7.615-18.142 12.789-25.125 15.56a37.678 37.678 0 0 1-11.962 2.63c-63.928 3.341-119.978.656-143.214.441 0 0-4.108 11.1-23.206 18.822a3133.917 3133.917 0 0 1-25.94 10.337l-8.24 13.237 3.433 7.645a9.438 9.438 0 0 1-4.365 12.3l-2.048 1.03-1.613-2.894a9.294 9.294 0 0 1-2.3 1.686l-3.164 1.594-2.507-4.469a9.266 9.266 0 0 1-2.121 1.465l-3.164 1.532-5.99-11.195-1.115.539-10.625-19.674a12.57 12.57 0 0 1-.147-11.673l.008.02Z"/>
  <path stroke="#451E2F" stroke-linecap="round" stroke-linejoin="round" stroke-width=".6" d="m320.124 519.683-11.765-21.979a12.575 12.575 0 0 1-.1-11.68l11.367-22.164"/>
  <path stroke="#451E2F" stroke-linecap="round" stroke-linejoin="round" stroke-width=".6" d="m327.906 521.148-10.878-19.384a12.578 12.578 0 0 1-.246-11.851l10.092-19.877"/>
  <path stroke="#451E2F" stroke-linecap="round" stroke-linejoin="round" stroke-width=".6" d="m334.981 520.756-9.828-17.657a9.447 9.447 0 0 1-.172-8.859l9.147-18.031"/>
  <path fill="#D87E6E" d="M428.969 394.55c22.936-4.537 49.894-9.62 69.777-12.133a220.407 220.407 0 0 1 56.534.662 25.322 25.322 0 0 1 20.729 17.553 107.565 107.565 0 0 1 4.464 24.61 18.045 18.045 0 0 1-4.831 13.513c-7.259 7.615-18.142 12.789-25.125 15.56a37.645 37.645 0 0 1-11.962 2.63c-39.6 2.072-76.159 1.827-103.785 1.293a184.444 184.444 0 0 0-5.801-63.688Z" opacity=".5"/>
  <path fill="#F9F9F9" d="M440.778 458.33c1.232-28.828-4.206-53.389-8.485-64.492l-1.085.208.129-3.409c23.457-4.519 50.519-9.448 66.993-11.526a225.03 225.03 0 0 1 57.5.681 28.607 28.607 0 0 1 23.347 19.822 110.438 110.438 0 0 1 4.611 25.382 21.462 21.462 0 0 1-5.684 16c-6.615 6.959-15.984 11.931-22.678 14.874-5.935 2.612-12.33 4.788-19.1 4.99-38.472 1.147-73.559 1.986-97.415.644l-1.269-3.213 3.133.037.003.002Z"/>
  <path stroke="#451E2F" stroke-linecap="round" stroke-linejoin="round" stroke-width=".6" d="M482.156 381.485c6.027-.969 11.521-1.784 16.173-2.372a224.984 224.984 0 0 1 57.5.68 29.003 29.003 0 0 1 11.392 4.206"/>
  <path stroke="#451E2F" stroke-linecap="round" stroke-linejoin="round" stroke-width=".6" d="M554.563 376.323s-7.541-.325-10.95 2.091"/>
</svg>