<svg xmlns="http://www.w3.org/2000/svg" fill="none" viewBox="0 0 429 398">
  <path fill="#3B3494" d="M214.17 397.421c118.194 0 214.009-16.094 214.009-35.946 0-19.852-95.815-35.946-214.009-35.946C95.976 325.529.16 341.623.16 361.475c0 19.852 95.816 35.946 214.01 35.946Z" opacity=".5"/>
  <path fill="#969696" d="M398.892 361.469a14.306 14.306 0 0 0 13.077-8.375c10.613-23.623 14.5-63.186 9.656-72.965-4.819-9.742-21.305-20.49-30.661-22.918a7.316 7.316 0 0 1-4.935-4.1c-2.875-6.567-9.166-20.717-14.132-30.373a62.831 62.831 0 0 0-9.294-13.439c-6.3-6.971-18.411-20.036-28.295-28.693a31.539 31.539 0 0 0-20.79-7.848H120.084a31.42 31.42 0 0 0-21.574 8.559c-7.61 7.192-18.375 17.866-26.431 27.878 0 0-19.8 9-35.787 23.077a28.599 28.599 0 0 0-5.794 7.044c-3.985 6.836-12.415 21.863-17.921 35.829a30.58 30.58 0 0 0-1.152 18.8c3.58 14.028 12.654 40.863 33.242 62.953a14.407 14.407 0 0 0 10.533 4.568h343.672l.02.003Z"/>
  <path fill="#969696" d="M402.532 354.288H51.98a14.7 14.7 0 0 1-5.858-1.212 14.701 14.701 0 0 1-4.89-3.448 134.327 134.327 0 0 1-20.41-29.116 135.82 135.82 0 0 0 23.856 36.4 14.404 14.404 0 0 0 10.539 4.567h343.672a14.311 14.311 0 0 0 13.078-8.375 86.832 86.832 0 0 0 1.575-3.758 14.68 14.68 0 0 1-11.011 4.948l.001-.006Z" opacity=".5"/>
  <path stroke="#451E2F" stroke-linecap="round" stroke-linejoin="round" stroke-width=".3" d="M421.631 280.129c-13.985-14.438-105.1-27.743-116.158-23.427-10.551 4.12-47.4 31.514-50.556 42.96-2.452 8.914 10.386 44.787 15.462 50.066 4.7 4.892 17.915 11.735 24.787 11.735"/>
  <path stroke="#451E2F" stroke-linecap="round" stroke-linejoin="round" stroke-width=".3" d="M254.917 299.669c-17.915 0-135.6-21.33-149.467-29.4-16.2-9.435-41.231-51.341-33.36-61.058"/>
  <path stroke="#451E2F" stroke-linecap="round" stroke-linejoin="round" stroke-width=".3" d="M11.449 293.98c3.3 11.14 94-11.134 94-23.715"/>
  <path fill="#969696" d="M321.807 207.979a7.194 7.194 0 0 1-8.595 7.054 7.197 7.197 0 0 1-5.651-5.651 7.198 7.198 0 0 1 3.058-7.383 7.194 7.194 0 0 1 10.641 3.228c.361.872.547 1.808.547 2.752Zm-52.85 5.389a5.39 5.39 0 1 1-10.778 0 5.39 5.39 0 0 1 10.778 0Zm-122.601 35.137a5.39 5.39 0 1 0 0-10.779 5.39 5.39 0 0 0 0 10.779Zm-99.868-1.104a5.39 5.39 0 1 0 0-10.778 5.39 5.39 0 0 0 0 10.778Zm280.683-4.285a3.593 3.593 0 1 0 0-7.186 3.593 3.593 0 0 0 0 7.186Zm-201.538-32.721a3.59 3.59 0 0 1-2.218 3.319 3.59 3.59 0 0 1-4.899-2.618 3.59 3.59 0 0 1 3.524-4.294 3.592 3.592 0 0 1 3.593 3.593Zm18.032 8.989a2.698 2.698 0 1 0 0-5.396 2.698 2.698 0 0 0 0 5.396Zm-33.647 37.398a2.705 2.705 0 0 1-1.667 2.494 2.696 2.696 0 0 1-2.942-.585 2.695 2.695 0 0 1-.586-2.942 2.698 2.698 0 0 1 2.495-1.667 2.697 2.697 0 0 1 2.7 2.7Zm170.03-61.223a2.698 2.698 0 1 0 0-5.396 2.698 2.698 0 0 0 0 5.396Zm24.684-9.718a2.698 2.698 0 1 0 0-5.396 2.698 2.698 0 0 0 0 5.396Zm50.636 39.936a2.705 2.705 0 0 1-1.667 2.495 2.704 2.704 0 0 1-2.942-.586 2.695 2.695 0 0 1 .409-4.154 2.7 2.7 0 0 1 4.2 2.245ZM69.123 248.511a3.592 3.592 0 1 1-7.184 0 3.592 3.592 0 0 1 7.184 0Z" opacity=".25"/>
  <path fill="#72F3ED" d="m15.986 4.154 1.1-1.1A8.29 8.29 0 0 1 22.94.626h202.04a4.133 4.133 0 0 1 4 3.072l40.912 153.416-5.217 5.217H59.209a4.132 4.132 0 0 1-4-3.072L14.916 8.149a4.154 4.154 0 0 1 1.073-4l-.003.005Z"/>
  <path fill="#F9F9F9" d="m15.986 4.154 1.1-1.1A8.29 8.29 0 0 1 22.94.626h202.04a4.133 4.133 0 0 1 4 3.072l40.912 153.416-5.217 5.217H59.209a4.132 4.132 0 0 1-4-3.072L14.916 8.149a4.154 4.154 0 0 1 1.073-4l-.003.005Z" opacity=".35"/>
  <path fill="#72F3ED" d="M24.896.624h200.078a4.133 4.133 0 0 1 4 3.072l40.912 153.416H61.236L20.896 5.829a4.14 4.14 0 0 1 4-5.205Z"/>
  <path fill="#C1C1F5" d="M257.915 147.915h-189.6L31.485 9.827h189.607l36.823 138.088Z"/>
  <path fill="#F9F9F9" d="M229.774 147.915 132.083 9.827h7.153l97.701 138.088h-7.163ZM111.942 9.827h14.31l97.7 138.088h-14.311L111.942 9.827Zm-59.47 0h21.47l97.7 138.088h-21.47L52.472 9.827Z" opacity=".25"/>
  <path fill="#9590D8" d="m220.387 10.747 36.334 136.249h-187.7L32.687 10.747h187.7Zm.7-.92h-189.6l36.822 138.088h189.6L221.087 9.827Z" opacity=".5"/>
  <path fill="#72F3ED" d="m61.239 157.111-1.68 1.68a2.067 2.067 0 0 0 1.466 3.531h203.652l5.218-5.217H61.245l-.006.006Z" opacity=".5"/>
  <path fill="#72F3ED" d="M373.213 172.764H62.238a.998.998 0 0 1-1-1v-14.646h312.975v14.646a1.002 1.002 0 0 1-1 1Z"/>
  <path fill="#F9F9F9" d="M373.213 172.764H62.238a.998.998 0 0 1-1-1v-14.646h312.975v14.646a1.002 1.002 0 0 1-1 1Z" opacity=".35"/>
  <path fill="#72F3ED" d="M373.213 172.764h-206.65a.997.997 0 0 1-1-1v-14.646h208.65v14.646a1.002 1.002 0 0 1-1 1Z"/>
  <path stroke="#451E2F" stroke-linecap="round" stroke-linejoin="round" stroke-width=".6" d="m249.724 81.48 20.171 75.631m-208.652 5.218h-2.035a4.138 4.138 0 0 1-4-3.072l-9.963-37.35m8.293-29.397L31.485 9.825h36.829m82.798 138.089h-82.8l-9.226-34.585m178.571-41.378 20.258 75.963h-36.823M171.816 9.826h49.276l11.042 41.41m-.325 105.875h58.784m-225.21 15.652a4.138 4.138 0 0 1-4.138-4.138v-11.508H227.67"/>
  <path stroke="#451E2F" stroke-linecap="round" stroke-linejoin="round" stroke-width=".3" d="M30.248 40.88 20.904 5.835a4.138 4.138 0 0 1 4-5.205m36.335 156.481L32.999 51.198m28.24 105.913-1.68 1.68a2.066 2.066 0 0 0-.45 2.257 2.07 2.07 0 0 0 1.915 1.275m108.686 10.44a4.137 4.137 0 0 1-4.138-4.138v-11.508"/>
</svg>