<svg xmlns="http://www.w3.org/2000/svg" viewBox="528.641 32.145 320.897 66.518">
    <path fill="#fff" d="M559.698 35.816c1.419 0 2.471.367 3.157 1.101.734.685 1.101 1.64 1.101 2.863 0 1.126-.367 2.056-1.101 2.79-.686.686-1.738 1.028-3.157 1.028h-9.618v36.49c0 .881-.392 1.688-1.175 2.423-.734.685-1.738 1.028-3.01 1.028-1.371 0-2.448-.343-3.231-1.028-.783-.735-1.175-1.542-1.175-2.423v-36.49h-8.663c-1.273 0-2.301-.342-3.084-1.028-.734-.734-1.101-1.664-1.101-2.79 0-1.223.367-2.178 1.101-2.863.783-.734 1.811-1.101 3.084-1.101h26.872Zm35.062 48.09c-1.224 0-2.227-.367-3.01-1.102-.734-.685-1.101-1.468-1.101-2.349V79.28l-.661-.22c-.44.636-.93 1.223-1.468 1.762-.49.539-1.102 1.028-1.836 1.468-.734.392-1.615.686-2.643.881-.979.245-2.203.368-3.671.368-2.349 0-4.405-.416-6.167-1.249-1.762-.881-3.206-2.007-4.332-3.377-1.126-1.37-1.982-2.937-2.57-4.699a18.502 18.502 0 0 1-.807-5.433V62.32c0-2.056.367-4.087 1.101-6.094a17.034 17.034 0 0 1 3.23-5.433c1.42-1.615 3.206-2.912 5.36-3.891 2.154-1.028 4.674-1.542 7.562-1.542 2.692 0 5.017.367 6.975 1.102 1.958.734 3.549 1.762 4.773 3.083 1.272 1.273 2.202 2.79 2.789 4.552.588 1.762.882 3.696.882 5.8v20.558c0 .881-.392 1.664-1.175 2.349-.784.735-1.86 1.102-3.231 1.102Zm-4.111-23.862c0-2.447-.612-4.16-1.836-5.139-1.174-1.028-2.863-1.542-5.066-1.542-1.272 0-2.423.245-3.45.734a7.348 7.348 0 0 0-2.644 1.909 9.29 9.29 0 0 0-1.762 2.717 9.21 9.21 0 0 0-.587 3.304v7.048c0 1.762.661 3.279 1.982 4.552 1.322 1.273 2.961 1.909 4.92 1.909a9.283 9.283 0 0 0 3.083-.514 8.913 8.913 0 0 0 2.717-1.615c.783-.735 1.419-1.64 1.909-2.717.489-1.077.734-2.325.734-3.744v-6.902Zm35.394-14.684c2.692 0 5.041.367 7.048 1.102 2.056.734 3.769 1.786 5.139 3.157 1.371 1.321 2.399 2.936 3.084 4.845.685 1.909 1.028 4.014 1.028 6.314v19.31c0 .881-.416 1.688-1.248 2.423-.832.685-1.885 1.028-3.157 1.028-1.273 0-2.301-.343-3.084-1.028-.783-.735-1.175-1.542-1.175-2.423V61.219c0-2.692-.734-4.674-2.202-5.947-1.42-1.273-3.231-1.909-5.433-1.909-2.203 0-4.038.636-5.507 1.909-1.468 1.273-2.202 3.255-2.202 5.947v18.869c0 .881-.392 1.688-1.175 2.423-.734.685-1.738 1.028-3.01 1.028-1.322 0-2.399-.343-3.231-1.028-.783-.735-1.175-1.542-1.175-2.423V61.513c0-2.301.343-4.43 1.028-6.388.686-2.007 1.714-3.72 3.084-5.139 1.37-1.469 3.059-2.595 5.066-3.378 2.056-.832 4.43-1.248 7.122-1.248Zm58 37.444c0 2.741-.44 5.091-1.321 7.049-.881 2.007-2.081 3.646-3.598 4.919-1.468 1.321-3.182 2.3-5.139 2.937a19.84 19.84 0 0 1-6.168.954c-1.86 0-3.524-.098-4.992-.294-1.469-.195-2.521-.416-3.157-.66-1.615-1.028-2.423-2.276-2.423-3.745 0-1.077.318-1.933.954-2.57.686-.636 1.714-.954 3.084-.954.539 0 1.297.098 2.276.294 1.028.195 2.448.293 4.258.293 1.126 0 2.154-.122 3.084-.367a5.005 5.005 0 0 0 2.423-1.248c.685-.587 1.223-1.419 1.615-2.496.392-1.028.588-2.398.588-4.112v-3.597l-.294-.147c-.783 1.321-1.934 2.398-3.451 3.23-1.468.833-3.426 1.249-5.873 1.249-4.601 0-8.15-1.42-10.646-4.259-2.497-2.888-3.745-6.828-3.745-11.82v-4.332c0-2.301.343-4.528 1.028-6.681.734-2.154 1.811-4.038 3.231-5.654 1.419-1.664 3.181-2.985 5.286-3.964 2.154-1.028 4.674-1.542 7.562-1.542 2.692 0 5.017.367 6.975 1.101 1.958.685 3.549 1.664 4.772 2.937a10.924 10.924 0 0 1 2.79 4.405c.588 1.713.881 3.549.881 5.507v23.567Zm-16.226-7.268c2.056 0 3.818-.588 5.287-1.762 1.517-1.224 2.324-3.109 2.423-5.654v-9.177c0-1.909-.612-3.329-1.836-4.258-1.175-.93-2.863-1.395-5.066-1.395-1.273 0-2.423.269-3.451.807a7.733 7.733 0 0 0-2.643 2.056c-.734.832-1.321 1.835-1.762 3.01-.392 1.126-.587 2.35-.587 3.671v4.919c0 5.188 2.545 7.783 7.635 7.783Zm54.137 8.37c-1.223 0-2.227-.367-3.01-1.102-.734-.685-1.101-1.468-1.101-2.349V79.28l-.661-.22c-.441.636-.93 1.223-1.468 1.762-.49.539-1.102 1.028-1.836 1.468-.734.392-1.615.686-2.643.881-.979.245-2.203.368-3.671.368-2.349 0-4.405-.416-6.167-1.249-1.762-.881-3.206-2.007-4.332-3.377-1.126-1.37-1.982-2.937-2.57-4.699a18.502 18.502 0 0 1-.807-5.433V62.32c0-2.056.367-4.087 1.101-6.094a17.034 17.034 0 0 1 3.23-5.433c1.42-1.615 3.206-2.912 5.36-3.891 2.154-1.028 4.674-1.542 7.562-1.542 2.692 0 5.017.367 6.975 1.102 1.958.734 3.549 1.762 4.772 3.083 1.273 1.273 2.203 2.79 2.79 4.552.588 1.762.881 3.696.881 5.8v20.558c0 .881-.391 1.664-1.174 2.349-.783.735-1.86 1.102-3.231 1.102Zm-4.111-23.862c0-2.447-.612-4.16-1.836-5.139-1.174-1.028-2.863-1.542-5.066-1.542-1.272 0-2.423.245-3.45.734a7.348 7.348 0 0 0-2.644 1.909 9.29 9.29 0 0 0-1.762 2.717 9.21 9.21 0 0 0-.587 3.304v7.048c0 1.762.661 3.279 1.982 4.552 1.322 1.273 2.962 1.909 4.919 1.909a9.284 9.284 0 0 0 3.084-.514 8.9 8.9 0 0 0 2.717-1.615c.783-.735 1.419-1.64 1.909-2.717.489-1.077.734-2.325.734-3.744v-6.902Zm34.953-6.681c-1.077 0-2.055.073-2.936.22-.881.147-1.64.441-2.276.881-.588.441-1.053 1.077-1.395 1.909-.294.832-.441 1.909-.441 3.231v20.484c0 .881-.392 1.688-1.175 2.423-.734.685-1.737 1.028-3.01 1.028-1.321 0-2.398-.343-3.23-1.028-.784-.735-1.175-1.542-1.175-2.423V59.897c0-4.65 1.248-8.223 3.744-10.719 2.497-2.545 6.461-3.818 11.894-3.818 2.497 0 4.381.49 5.654 1.469 1.321.979 1.835 2.349 1.542 4.111-.147.881-.466 1.517-.955 1.909-.49.343-1.077.563-1.762.661-.685.049-1.419.049-2.203 0a18.321 18.321 0 0 0-2.276-.147Zm14.774-4.552c0-.881.392-1.664 1.175-2.349.832-.735 1.909-1.102 3.231-1.102 1.272 0 2.276.367 3.01 1.102.783.685 1.174 1.468 1.174 2.349v31.277c0 .881-.391 1.688-1.174 2.423-.734.685-1.738 1.028-3.01 1.028-1.322 0-2.399-.343-3.231-1.028-.783-.735-1.175-1.542-1.175-2.423V48.811Zm0-13.216c0-.881.392-1.664 1.175-2.349.832-.734 1.909-1.101 3.231-1.101 1.272 0 2.276.367 3.01 1.101.783.685 1.174 1.468 1.174 2.349v1.762c0 .881-.391 1.689-1.174 2.423-.734.686-1.738 1.028-3.01 1.028-1.322 0-2.399-.342-3.231-1.028-.783-.734-1.175-1.542-1.175-2.423v-1.762Zm22.052 10.499v-7.562c0-.881.391-1.664 1.174-2.349.783-.734 1.86-1.102 3.231-1.102 1.272 0 2.276.368 3.01 1.102.783.685 1.175 1.468 1.175 2.349v7.562h5.433c.832 0 1.566.319 2.202.955.637.587.955 1.37.955 2.349 0 1.077-.318 1.934-.955 2.57-.636.587-1.37.881-2.202.881h-5.433v17.768c0 2.055.269 3.45.807 4.185.539.734 1.322 1.101 2.35 1.101.978 0 1.811-.074 2.496-.22.685-.196 1.468-.294 2.35-.294 1.125 0 1.933.318 2.422.954.539.588.808 1.42.808 2.497 0 .93-.245 1.688-.734 2.276-.49.587-1.151 1.076-1.983 1.468-.783.343-1.713.587-2.789.734-1.028.147-2.13.221-3.304.221-3.818 0-6.608-.98-8.37-2.937-1.762-2.007-2.643-5.433-2.643-10.279V52.849h-2.937c-.832 0-1.567-.294-2.203-.881-.636-.636-.954-1.493-.954-2.57 0-.979.318-1.762.954-2.349.636-.636 1.371-.955 2.203-.955h2.937Zm55.511 37.812c-1.224 0-2.227-.367-3.01-1.102-.734-.685-1.101-1.468-1.101-2.349V79.28l-.661-.22c-.441.636-.93 1.223-1.468 1.762-.49.539-1.102 1.028-1.836 1.468-.734.392-1.615.686-2.643.881-.979.245-2.203.368-3.671.368-2.349 0-4.405-.416-6.167-1.249-1.762-.881-3.207-2.007-4.332-3.377-1.126-1.37-1.982-2.937-2.57-4.699a18.502 18.502 0 0 1-.807-5.433V62.32c0-2.056.367-4.087 1.101-6.094a17.034 17.034 0 0 1 3.23-5.433c1.42-1.615 3.206-2.912 5.36-3.891 2.153-1.028 4.674-1.542 7.562-1.542 2.692 0 5.017.367 6.975 1.102 1.958.734 3.549 1.762 4.772 3.083 1.273 1.273 2.203 2.79 2.79 4.552.588 1.762.881 3.696.881 5.8v20.558c0 .881-.391 1.664-1.174 2.349-.784.735-1.86 1.102-3.231 1.102Zm-4.111-23.862c0-2.447-.612-4.16-1.836-5.139-1.174-1.028-2.863-1.542-5.066-1.542-1.272 0-2.423.245-3.45.734a7.348 7.348 0 0 0-2.644 1.909 9.29 9.29 0 0 0-1.762 2.717 9.21 9.21 0 0 0-.587 3.304v7.048c0 1.762.661 3.279 1.982 4.552 1.322 1.273 2.961 1.909 4.919 1.909a9.284 9.284 0 0 0 3.084-.514 8.913 8.913 0 0 0 2.717-1.615c.783-.735 1.419-1.64 1.909-2.717.489-1.077.734-2.325.734-3.744v-6.902Z"/>
</svg>