<svg xmlns="http://www.w3.org/2000/svg" fill="none" viewBox="0 0 517 353">
  <path fill="#DBF22E" fill-rule="evenodd" d="M0 0h517v353H0V0Zm113.717 47h289.615c20.278 0 36.716 16.703 36.716 37.307v185.331c0 20.604-16.438 37.307-36.716 37.307H113.717C93.439 306.945 77 290.242 77 269.638V84.308C77 63.702 93.439 47 113.717 47Z" clip-rule="evenodd"/>
  <path fill="#090666" d="M475.268 0v243.43c0 40.119-33.81 73.002-75.06 73.002H87.316c-41.251 0-75.06-32.883-75.06-73.002V0H0v353h75.06l441.931-.009.009-72.993V0h-41.732Z" opacity=".2"/>
  <path fill="#fff" d="M381.984 45.803H135.751c-32.167 0-58.531 22.212-58.531 49.314v167.389c0 16.792 10.091 31.671 25.481 40.598-3.909-6.778-6-14.521-6.055-22.424V111.908c0-27.316 24.977-49.739 55.377-49.739h232.988c30.401 0 55.377 22.425 55.377 49.739V95.01c0-27.101-26.364-49.314-58.531-49.314l.127.107Z" opacity=".6"/>
  <path fill="#090666" d="M396.925 316.259H119.657C90.104 316.259 66 291.546 66 261.246V92.014C66 61.714 90.104 37 119.657 37h277.268c29.554 0 53.658 24.713 53.658 55.014v169.232c-.001 30.3-24.104 55.013-53.658 55.013ZM119.657 47.315c-11.559.01-22.643 4.721-30.817 13.102-8.174 8.38-12.77 19.745-12.78 31.597v169.232a45.62 45.62 0 0 0 3.334 17.081 44.735 44.735 0 0 0 9.457 14.473 43.495 43.495 0 0 0 14.138 9.66 42.619 42.619 0 0 0 16.668 3.377h277.268c11.533-.007 22.591-4.708 30.746-13.068 8.155-8.361 12.739-19.699 12.746-31.523V92.014c0-24.606-19.493-44.699-43.492-44.699H119.657Z"/>
  <path fill="#090666" d="M481.413 121.674c11.344 0 20.541-8.648 20.541-19.315 0-10.667-9.197-19.314-20.541-19.314-11.344 0-20.541 8.647-20.541 19.314s9.197 19.315 20.541 19.315Z" opacity=".4"/>
  <path fill="#fff" d="M481.412 114.008c10.159 0 18.395-8.236 18.395-18.395 0-10.159-8.236-18.394-18.395-18.394-10.159 0-18.394 8.235-18.394 18.394 0 10.159 8.235 18.395 18.394 18.395Z"/>
  <path fill="#090666" d="M481.412 105.833a18.406 18.406 0 0 1-17.985-14.409 17.878 17.878 0 0 0-.511 4.088 18.404 18.404 0 0 0 5.387 13.006 18.389 18.389 0 0 0 20.046 3.988 18.389 18.389 0 0 0 9.955-9.955 18.386 18.386 0 0 0 1.401-7.04c0-10.117-.205-2.759-.511-4.087a18.513 18.513 0 0 1-17.986 14.409h.204Z" opacity=".4"/>
  <path fill="#090666" d="M481.412 116.972a21.354 21.354 0 0 1-19.732-13.185 21.363 21.363 0 0 1 4.63-23.276 21.36 21.36 0 0 1 32.861 3.237 21.356 21.356 0 0 1 3.599 11.866 21.417 21.417 0 0 1-21.358 21.358Zm0-36.891a15.432 15.432 0 0 0-10.911 26.342 15.43 15.43 0 0 0 26.342-10.912 15.483 15.483 0 0 0-15.431-15.43Z"/>
  <path fill="#090666" d="M481.413 179.718c11.344 0 20.541-8.648 20.541-19.315 0-10.667-9.197-19.314-20.541-19.314-11.344 0-20.541 8.647-20.541 19.314s9.197 19.315 20.541 19.315Z" opacity=".4"/>
  <path fill="#fff" d="M481.412 171.95c10.159 0 18.395-8.236 18.395-18.394 0-10.159-8.236-18.395-18.395-18.395-10.158 0-18.394 8.236-18.394 18.395 0 10.158 8.236 18.394 18.394 18.394Z"/>
  <path fill="#090666" d="M481.412 163.878a18.406 18.406 0 0 1-17.985-14.409 17.877 17.877 0 0 0-.511 4.088 18.404 18.404 0 0 0 5.387 13.006 18.405 18.405 0 0 0 13.007 5.388 18.396 18.396 0 0 0 18.395-18.394c0-10.118-.205-2.76-.511-4.088a18.51 18.51 0 0 1-17.986 14.409h.204Z" opacity=".4"/>
  <path fill="#090666" d="M481.412 175.017a21.354 21.354 0 0 1-19.732-13.185 21.363 21.363 0 0 1 4.63-23.276 21.358 21.358 0 0 1 36.46 15.103 21.417 21.417 0 0 1-21.358 21.358Zm0-36.892a15.435 15.435 0 0 0-15.134 18.442 15.43 15.43 0 0 0 30.565-3.011 15.48 15.48 0 0 0-15.431-15.431Z"/>
  <path fill="#090666" d="M481.413 236.74c11.344 0 20.541-8.693 20.541-19.416 0-10.724-9.197-19.417-20.541-19.417-11.344 0-20.541 8.693-20.541 19.417 0 10.723 9.197 19.416 20.541 19.416Z" opacity=".4"/>
  <path fill="#fff" d="M481.412 228.973c10.159 0 18.395-8.235 18.395-18.394 0-10.159-8.236-18.394-18.395-18.394-10.158 0-18.394 8.235-18.394 18.394 0 10.159 8.236 18.394 18.394 18.394Z"/>
  <path fill="#090666" d="M481.412 220.799a18.424 18.424 0 0 1-17.985-14.306 17.869 17.869 0 0 0-.511 4.087c0 4.879 1.938 9.557 5.387 13.007a18.398 18.398 0 0 0 26.014 0 18.393 18.393 0 0 0 5.388-13.007c0-10.117-.205-2.759-.511-4.087a18.429 18.429 0 0 1-17.986 14.306h.204Z" opacity=".4"/>
  <path fill="#090666" d="M481.412 231.937a21.353 21.353 0 0 1-19.732-13.184 21.363 21.363 0 0 1 4.63-23.276 21.358 21.358 0 0 1 36.46 15.103 21.415 21.415 0 0 1-21.358 21.357Zm0-36.891a15.435 15.435 0 0 0-15.134 18.442 15.43 15.43 0 0 0 30.565-3.011 15.48 15.48 0 0 0-15.431-15.431Zm20.291 78.667h-40.278a2.247 2.247 0 0 1-2.244-2.244 2.203 2.203 0 0 1 1.38-2.082c.274-.112.568-.167.864-.162h40.278a2.245 2.245 0 0 1 2.245 2.244 2.222 2.222 0 0 1-.648 1.597 2.202 2.202 0 0 1-1.597.647Zm0 10.703h-40.278a2.25 2.25 0 0 1-2.244-2.244 2.203 2.203 0 0 1 .647-1.597 2.204 2.204 0 0 1 1.597-.647h40.278c.595 0 1.166.237 1.586.658.421.42.658.991.658 1.586a2.206 2.206 0 0 1-2.244 2.244Zm0 11.681h-40.278a2.245 2.245 0 0 1-2.244-2.244 2.203 2.203 0 0 1 .647-1.597 2.22 2.22 0 0 1 1.597-.647h40.278a2.243 2.243 0 0 1 2.244 2.244 2.203 2.203 0 0 1-1.38 2.082 2.186 2.186 0 0 1-.864.162Z"/>
  <path fill="#090666" d="M39.143 121.519c11.344 0 20.54-8.647 20.54-19.314s-9.196-19.314-20.54-19.314-20.54 8.647-20.54 19.314 9.196 19.314 20.54 19.314Z" opacity=".4"/>
  <path fill="#fff" d="M39.142 113.854c10.16 0 18.395-8.235 18.395-18.394 0-10.16-8.236-18.395-18.395-18.395-10.159 0-18.394 8.236-18.394 18.395 0 10.159 8.235 18.394 18.394 18.394Z"/>
  <path fill="#090666" d="M39.142 105.68a18.407 18.407 0 0 1-17.985-14.41 17.91 17.91 0 0 0-.511 4.088A18.398 18.398 0 0 0 32 112.353a18.402 18.402 0 0 0 14.078 0 18.407 18.407 0 0 0 9.955-9.955 18.398 18.398 0 0 0 1.4-7.04c0-10.117-.204-2.759-.51-4.087a18.519 18.519 0 0 1-17.986 14.409h.204Z" opacity=".4"/>
  <path fill="#090666" d="M39.142 116.818a21.356 21.356 0 0 1-15.102-36.46A21.359 21.359 0 0 1 60.5 95.46a21.414 21.414 0 0 1-21.358 21.358Zm0-36.89a15.43 15.43 0 1 0 15.431 15.43 15.483 15.483 0 0 0-15.43-15.43Z"/>
  <path fill="#090666" d="M39.143 179.564c11.344 0 20.54-8.647 20.54-19.314s-9.196-19.314-20.54-19.314-20.54 8.647-20.54 19.314 9.196 19.314 20.54 19.314Z" opacity=".4"/>
  <path fill="#fff" d="M39.142 171.797c10.16 0 18.395-8.236 18.395-18.395 0-10.159-8.236-18.394-18.395-18.394-10.159 0-18.394 8.235-18.394 18.394 0 10.159 8.235 18.395 18.394 18.395Z"/>
  <path fill="#090666" d="M39.142 163.725a18.412 18.412 0 0 1-17.985-14.409 17.903 17.903 0 0 0-.511 4.087A18.39 18.39 0 0 0 32 170.397a18.384 18.384 0 0 0 14.078 0 18.389 18.389 0 0 0 11.356-16.994c0-10.117-.205-2.759-.511-4.087a18.517 18.517 0 0 1-17.986 14.409h.205Z" opacity=".4"/>
  <path fill="#090666" d="M39.142 174.863a21.356 21.356 0 0 1-20.947-25.524 21.36 21.36 0 0 1 29.12-15.566A21.358 21.358 0 0 1 60.5 153.505a21.414 21.414 0 0 1-21.358 21.358Zm0-36.891a15.428 15.428 0 0 0-14.256 9.526 15.432 15.432 0 0 0 11.246 21.04 15.434 15.434 0 0 0 18.441-15.135 15.483 15.483 0 0 0-15.43-15.431Z"/>
  <path fill="#090666" d="M39.143 236.587c11.344 0 20.54-8.693 20.54-19.416 0-10.724-9.196-19.417-20.54-19.417s-20.54 8.693-20.54 19.417c0 10.723 9.196 19.416 20.54 19.416Z" opacity=".4"/>
  <path fill="#fff" d="M39.142 228.82c10.16 0 18.395-8.235 18.395-18.394 0-10.159-8.236-18.395-18.395-18.395-10.159 0-18.394 8.236-18.394 18.395 0 10.159 8.235 18.394 18.394 18.394Z"/>
  <path fill="#090666" d="M39.142 220.645a18.422 18.422 0 0 1-17.985-14.307 17.912 17.912 0 0 0-.511 4.088A18.396 18.396 0 0 0 39.04 228.82a18.396 18.396 0 0 0 18.395-18.394c0-10.117-.205-2.76-.511-4.088a18.424 18.424 0 0 1-17.986 14.307h.204Z" opacity=".4"/>
  <path fill="#090666" d="M39.142 231.784a21.356 21.356 0 0 1-20.947-25.524 21.36 21.36 0 0 1 29.12-15.566A21.363 21.363 0 0 1 60.5 210.426a21.414 21.414 0 0 1-21.358 21.358Zm0-36.891a15.428 15.428 0 0 0-14.256 9.526 15.429 15.429 0 0 0 11.246 21.039 15.425 15.425 0 0 0 15.84-6.561 15.432 15.432 0 0 0 2.601-8.573 15.483 15.483 0 0 0-15.43-15.431Zm20.291 78.667H19.155a2.247 2.247 0 0 1-2.244-2.244 2.209 2.209 0 0 1 2.244-2.244h40.278a2.242 2.242 0 0 1 2.245 2.244 2.212 2.212 0 0 1-2.245 2.244Zm0 10.702H19.155a2.242 2.242 0 0 1-2.244-2.244 2.212 2.212 0 0 1 2.244-2.244h40.278a2.25 2.25 0 0 1 2.244 2.244 2.209 2.209 0 0 1-2.244 2.244Zm0 11.682H19.155a2.25 2.25 0 0 1-2.244-2.244 2.209 2.209 0 0 1 1.38-2.083c.274-.111.568-.166.864-.162h40.278a2.248 2.248 0 0 1 2.244 2.245 2.212 2.212 0 0 1-2.244 2.244Z"/>
  <path fill="#090666" d="M442 177.097v91.17c0 23.894-26.633 43.477-59.128 43.477H134.128c-32.495 0-59.128-19.583-59.128-43.477v-32.982c10.322 16.865 31.475 30.171 55.05 37.48 29.181 9.089 61.676 10.4 93.407 10.494 36.19.094 73.4-1.312 106.786-11.621 42.817-13.118 75.947-40.01 97.229-70.275A186.065 186.065 0 0 0 441.999 177l.001.097Z" opacity=".2"/>
</svg>